<svg width="161" height="38" viewBox="0 0 161 38" fill="none" xmlns="http://www.w3.org/2000/svg">
<path d="M24.9367 0V12.4097H37.4051V25.0903H24.9367V37.5H12.4684V25.0903H0V12.4097H12.4684V0H24.9367ZM109.32 23.877H109.462L112.304 13.8635H116.299L111.011 28.9734C110.757 29.7071 110.413 30.3467 109.976 30.8911C109.545 31.4415 108.998 31.8648 108.337 32.1606C107.676 32.4624 106.878 32.6135 105.946 32.6135C105.468 32.6135 105.019 32.5744 104.6 32.4976C104.187 32.4266 103.844 32.3354 103.573 32.2229L104.424 29.3994C104.866 29.5354 105.264 29.6098 105.618 29.6216C105.978 29.6335 106.289 29.5501 106.548 29.3726C106.814 29.1949 107.03 28.893 107.195 28.4668L107.417 27.8894L102.536 13.8635H106.505L109.32 23.877ZM73.3112 13.6853C74.2084 13.6853 75.044 13.83 75.8171 14.1199C76.5964 14.4039 77.2756 14.8336 77.8541 15.4077C78.4387 15.9818 78.8932 16.7043 79.2179 17.5745C79.5424 18.4384 79.7049 19.4505 79.7049 20.6104V21.6492H70.4425V21.6577C70.4426 22.3325 70.566 22.9157 70.8139 23.407C71.0678 23.898 71.425 24.2772 71.8854 24.5435C72.3459 24.8098 72.8927 24.9426 73.5243 24.9426C73.9434 24.9426 74.3268 24.8827 74.675 24.7644C75.0233 24.646 75.3219 24.4689 75.5699 24.2322C75.8177 23.9955 76.0062 23.7051 76.1361 23.3618L79.6258 23.5925C79.4487 24.4329 79.0851 25.1673 78.536 25.7947C77.9929 26.4161 77.2903 26.9019 76.4283 27.251C75.5724 27.5942 74.5836 27.7661 73.4622 27.7661C72.0632 27.7661 70.8591 27.481 69.8496 26.9128C68.8461 26.3389 68.0719 25.5287 67.5288 24.4812C66.9857 23.4277 66.7142 22.1815 66.7142 20.7434C66.7142 19.3407 66.9857 18.1091 67.5288 17.0496C68.0719 15.9904 68.837 15.1646 69.8228 14.5728C70.8144 13.9811 71.9773 13.6853 73.3112 13.6853ZM86.9448 13.6853C88.6626 13.6854 90.0149 14.05 91.0007 14.7778C91.9922 15.5058 92.5705 16.497 92.7358 17.7515L89.2827 17.9651C89.2236 17.6691 89.0963 17.4022 88.9016 17.1655C88.7067 16.9228 88.4496 16.7301 88.1308 16.5881C87.818 16.4403 87.4435 16.366 87.007 16.366C86.4224 16.366 85.929 16.491 85.5275 16.7395C85.1262 16.9822 84.926 17.3077 84.926 17.7161C84.9261 18.0415 85.0559 18.3164 85.3157 18.5413C85.5754 18.7661 86.0211 18.9472 86.6526 19.0833L89.1134 19.5801C90.4358 19.8523 91.4229 20.2912 92.0722 20.8948C92.7212 21.4985 93.0463 22.2917 93.0463 23.2739C93.0462 24.1675 92.7826 24.9516 92.2573 25.6262C91.7379 26.3008 91.0234 26.8271 90.1143 27.2058C89.2111 27.5786 88.1694 27.7661 86.9887 27.7661C85.1884 27.7661 83.7541 27.3896 82.6856 26.6382C81.623 25.8806 80.9996 24.8507 80.8166 23.5486L84.5267 23.3533C84.6387 23.9037 84.9103 24.3243 85.3413 24.6143C85.7721 24.8982 86.3244 25.0402 86.9972 25.0403C87.6583 25.0403 88.1896 24.9126 88.5911 24.6582C88.9984 24.3977 89.2061 24.0632 89.212 23.6548C89.206 23.3117 89.0607 23.0302 88.7774 22.8113C88.4941 22.5866 88.0572 22.4157 87.4672 22.2974L85.1111 21.8262C83.7832 21.56 82.7944 21.0987 82.145 20.4419C81.5015 19.7849 81.1795 18.9463 81.1795 17.9285C81.1796 17.0527 81.4159 16.2984 81.8881 15.6653C82.3663 15.0319 83.0364 14.5437 83.8984 14.2004C84.7662 13.8572 85.7818 13.6853 86.9448 13.6853ZM154.111 13.6853C155.009 13.6853 155.845 13.8299 156.618 14.1199C157.397 14.4039 158.075 14.8336 158.654 15.4077C159.238 15.9818 159.693 16.7044 160.017 17.5745C160.343 18.4384 160.504 19.4505 160.504 20.6104V21.6492H151.242V21.6577C151.242 22.3325 151.365 22.9157 151.613 23.407C151.868 23.8981 152.225 24.2772 152.686 24.5435C153.146 24.8097 153.692 24.9425 154.323 24.9426C154.743 24.9426 155.127 24.8828 155.476 24.7644C155.823 24.646 156.121 24.4688 156.369 24.2322C156.618 23.9955 156.806 23.7051 156.937 23.3618L160.425 23.5925C160.248 24.4329 159.885 25.1673 159.336 25.7947C158.793 26.4161 158.089 26.9019 157.228 27.251C156.371 27.5942 155.382 27.7661 154.262 27.7661C152.863 27.7661 151.659 27.481 150.649 26.9128C149.646 26.3389 148.872 25.5287 148.328 24.4812C147.786 23.4277 147.514 22.1815 147.514 20.7434C147.514 19.3407 147.786 18.1091 148.328 17.0496C148.872 15.9904 149.636 15.1646 150.622 14.5728C151.613 13.981 152.777 13.6854 154.111 13.6853ZM99.3487 13.8635H101.908V16.7041H99.3487V23.3093C99.3487 23.6584 99.4019 23.9308 99.5082 24.126C99.6144 24.3154 99.7626 24.4483 99.9514 24.5251C100.146 24.602 100.37 24.6411 100.624 24.6411C100.801 24.6411 100.978 24.6254 101.156 24.5959C101.332 24.5604 101.468 24.5343 101.562 24.5166L102.156 27.3303C101.968 27.3894 101.701 27.4585 101.359 27.5354C101.017 27.6182 100.601 27.6678 100.111 27.6855C99.2019 27.7212 98.4043 27.5999 97.7195 27.3218C97.0406 27.0435 96.512 26.6114 96.1342 26.0254C95.7565 25.4395 95.5705 24.6997 95.5765 23.8062V16.7041H93.7172V13.8635H95.5765V10.5957H99.3487V13.8635ZM143.941 13.8635H146.499V16.7041H143.941V23.3093C143.941 23.6584 143.995 23.9308 144.101 24.126C144.207 24.3152 144.354 24.4483 144.543 24.5251C144.737 24.6021 144.962 24.6411 145.216 24.6411C145.393 24.6411 145.57 24.6254 145.747 24.5959C145.924 24.5604 146.06 24.5344 146.154 24.5166L146.748 27.3303C146.56 27.3894 146.293 27.4585 145.95 27.5354C145.608 27.6182 145.192 27.6678 144.702 27.6855C143.794 27.7211 142.995 27.5999 142.311 27.3218C141.633 27.0435 141.105 26.6113 140.727 26.0254C140.349 25.4395 140.163 24.6998 140.168 23.8062V16.7041H138.309V13.8635H140.168V10.5957H143.941V13.8635ZM65.1228 11.5991L56.0638 24.3298H65.1398V27.4988H51.2554V25.2173L60.3047 12.4866H51.2371V9.31763H65.1228V11.5991ZM124.813 9.31763C126.147 9.31763 127.26 9.51561 128.151 9.91211C129.043 10.3086 129.713 10.8596 130.16 11.5637C130.609 12.2621 130.834 13.0669 130.834 13.9783C130.834 14.6885 130.693 15.3134 130.409 15.8521C130.126 16.3845 129.737 16.8223 129.241 17.1655C128.751 17.5028 128.189 17.7425 127.557 17.8845V18.0627C128.248 18.0924 128.896 18.2865 129.498 18.6475C130.105 19.0086 130.598 19.5151 130.976 20.166C131.354 20.8111 131.542 21.5808 131.542 22.4744C131.542 23.439 131.304 24.2998 130.825 25.0574C130.353 25.8089 129.653 26.4042 128.727 26.842C127.801 27.28 126.657 27.4988 125.3 27.4988H117.552V9.31763H124.813ZM136.991 27.4988H133.219V13.8635H136.991V27.4988ZM12.4684 12.6819V24.8193H24.9367V12.6819H12.4684ZM121.385 24.3567H124.512C125.58 24.3566 126.36 24.1522 126.85 23.7439C127.339 23.3297 127.585 22.7788 127.585 22.0923C127.585 21.5894 127.464 21.145 127.222 20.7605C126.979 20.376 126.633 20.0749 126.186 19.856C125.742 19.6371 125.214 19.5276 124.6 19.5276H121.385V24.3567ZM154.174 16.5088C153.601 16.5088 153.092 16.6416 152.65 16.908C152.213 17.1683 151.871 17.5212 151.623 17.9651C151.394 18.3691 151.27 18.8157 151.247 19.3054H156.954C156.954 18.7609 156.835 18.2779 156.6 17.8577C156.363 17.4377 156.036 17.1092 155.616 16.8726C155.203 16.6301 154.722 16.5089 154.174 16.5088ZM73.3733 16.5088C72.8007 16.5088 72.2928 16.6416 71.8501 16.908C71.4133 17.1683 71.0716 17.5211 70.8237 17.9651C70.595 18.3691 70.4702 18.8157 70.4474 19.3054H76.1544C76.1544 18.7609 76.0362 18.2779 75.8 17.8577C75.564 17.4377 75.2363 17.1093 74.8174 16.8726C74.4041 16.6299 73.9223 16.5088 73.3733 16.5088ZM121.385 16.9263H124.228C124.753 16.9263 125.219 16.8339 125.627 16.6504C126.041 16.4611 126.366 16.1952 126.601 15.8521C126.843 15.5089 126.965 15.0971 126.965 14.6179C126.965 13.9609 126.732 13.4311 126.264 13.0286C125.804 12.6263 125.15 12.4244 124.3 12.4243H121.385V16.9263ZM135.115 8.27881C135.674 8.27888 136.153 8.46805 136.548 8.84644C136.949 9.21931 137.151 9.66711 137.151 10.188C137.151 10.7146 136.949 11.1668 136.548 11.5454C136.153 11.9182 135.674 12.1056 135.115 12.1057C134.554 12.1057 134.072 11.9183 133.671 11.5454C133.276 11.1668 133.078 10.7145 133.078 10.188C133.078 9.66711 133.275 9.21931 133.671 8.84644C134.072 8.46787 134.554 8.27881 135.115 8.27881Z" fill="white"/>
</svg>
