<svg width="162" height="38" viewBox="0 0 162 38" fill="none" xmlns="http://www.w3.org/2000/svg">
<path d="M19.1165 25.0146C22.6352 25.0148 25.4895 27.8743 25.4895 31.4038C25.4893 34.9333 22.6351 37.7928 19.1165 37.793C15.5978 37.793 12.7438 34.9334 12.7435 31.4038C12.7435 27.8742 15.5977 25.0146 19.1165 25.0146ZM100.129 13.2666C101.026 13.2666 101.862 13.4124 102.635 13.7024C103.414 13.9864 104.094 14.4149 104.672 14.989C105.257 15.5631 105.711 16.2857 106.036 17.1558C106.36 18.0197 106.523 19.0318 106.523 20.1917V21.2305H97.2605V21.239C97.2605 21.9138 97.3839 22.497 97.6318 22.9883C97.8857 23.4794 98.2429 23.8585 98.7033 24.1248C99.1636 24.391 99.7097 24.5239 100.341 24.5239C100.76 24.5239 101.145 24.4653 101.493 24.3469C101.841 24.2286 102.139 24.0502 102.387 23.8135C102.635 23.5767 102.824 23.2865 102.954 22.9431L106.442 23.175C106.265 24.0151 105.903 24.7488 105.354 25.376C104.811 25.9973 104.108 26.4832 103.246 26.8323C102.39 27.1756 101.402 27.3474 100.28 27.3474C98.881 27.3474 97.6757 27.0636 96.6663 26.4954C95.6627 25.9214 94.8898 25.11 94.3467 24.0625C93.8036 23.009 93.5321 21.7628 93.5321 20.3247C93.5322 18.9221 93.8037 17.6915 94.3467 16.6321C94.8897 15.573 95.6538 14.7471 96.6395 14.1553C97.6312 13.5634 98.7949 13.2666 100.129 13.2666ZM155.736 13.2666C156.492 13.2666 157.215 13.3552 157.906 13.5327C158.603 13.7103 159.221 13.9863 159.758 14.3591C160.3 14.7319 160.729 15.2115 161.041 15.7971C161.354 16.3771 161.51 17.0726 161.51 17.8833V27.0813H157.934V25.1892H157.826C157.608 25.6152 157.317 25.9917 156.95 26.3171C156.585 26.6368 156.144 26.888 155.63 27.0715C155.117 27.249 154.523 27.3389 153.851 27.3389C152.984 27.3389 152.209 27.1877 151.531 26.886C150.851 26.5781 150.314 26.1251 149.919 25.5273C149.53 24.9237 149.334 24.1721 149.334 23.2727C149.334 22.5152 149.474 21.8785 149.751 21.3635C150.029 20.8486 150.407 20.4346 150.884 20.1208C151.363 19.8073 151.905 19.5703 152.513 19.4104C153.128 19.2507 153.771 19.1385 154.443 19.0735C155.235 18.9906 155.872 18.9138 156.357 18.8428C156.841 18.7658 157.191 18.6525 157.411 18.5046C157.629 18.3567 157.738 18.1378 157.738 17.8479V17.7942C157.738 17.2322 157.561 16.7969 157.207 16.4893C156.859 16.1815 156.363 16.0279 155.719 16.0278C155.041 16.0278 154.5 16.179 154.099 16.4807C153.697 16.7765 153.431 17.1491 153.301 17.5989L149.813 17.3157C149.99 16.4872 150.338 15.7708 150.857 15.1672C151.377 14.5577 152.047 14.0901 152.868 13.7646C153.694 13.4332 154.65 13.2666 155.736 13.2666ZM70.0054 21.4526C70.0113 22.2574 70.227 22.8932 70.652 23.3606C71.077 23.8281 71.6461 24.0625 72.3603 24.0625C72.8148 24.0625 73.2397 23.9584 73.6351 23.7512C74.0308 23.5382 74.3502 23.2243 74.5922 22.8101C74.84 22.3959 74.9609 21.8838 74.955 21.2744V13.4448H78.7272V27.0813H75.106V24.6045H74.9635C74.6565 25.4032 74.1459 26.0455 73.4318 26.5308C72.7234 27.0159 71.8583 27.2583 70.8371 27.2583C69.9281 27.2583 69.1278 27.0512 68.4371 26.637C67.7466 26.2226 67.2061 25.6339 66.8165 24.8706C66.4327 24.1071 66.238 23.1918 66.232 22.1265V13.4448H70.0054V21.4526ZM129.914 21.4526C129.921 22.2574 130.136 22.8932 130.561 23.3606C130.986 23.8282 131.556 24.0625 132.27 24.0625C132.725 24.0624 133.15 23.9584 133.545 23.7512C133.941 23.5382 134.259 23.2243 134.501 22.8101C134.749 22.3958 134.87 21.884 134.864 21.2744V13.4448H138.637V27.0813H135.015V24.6045H134.874C134.567 25.4033 134.055 26.0455 133.341 26.5308C132.633 27.0159 131.768 27.2583 130.746 27.2583C129.837 27.2583 129.038 27.0512 128.347 26.637C127.657 26.2227 127.117 25.6339 126.727 24.8706C126.343 24.1071 126.148 23.1918 126.142 22.1265V13.4448H129.914V21.4526ZM56.7371 23.9111H64.5128V27.0813H52.9028V8.89893H56.7371V23.9111ZM86.6465 18.2117L89.206 13.4448H93.0755L89.1353 20.2625L93.1815 27.0813H89.3302L86.6465 22.3669L84.008 27.0813H80.1116L84.1492 20.2625L80.2529 13.4448H84.1492L86.6465 18.2117ZM124.777 27.0813H120.669L119.326 22.9346H112.779L111.433 27.0813H107.324L113.585 8.89893H118.526L124.777 27.0813ZM147.973 13.2495C148.162 13.2495 148.366 13.2612 148.584 13.2849C148.803 13.3085 148.994 13.3411 149.16 13.3826V16.7383C148.983 16.6849 148.736 16.637 148.423 16.5955C148.112 16.5541 147.825 16.5344 147.566 16.5344C147.011 16.5344 146.515 16.6556 146.077 16.8982C145.647 17.1348 145.305 17.4661 145.052 17.8918C144.804 18.3181 144.678 18.8101 144.678 19.3665V27.0813H140.907V13.4448H144.564V15.824H144.706C144.953 14.9776 145.369 14.3384 145.954 13.9062C146.539 13.4683 147.211 13.2495 147.973 13.2495ZM6.37299 12.5049C9.89356 12.505 12.746 15.3665 12.746 18.894C12.7458 22.4216 9.89159 25.2831 6.37299 25.2832C2.85426 25.2832 0.000154297 22.4217 0 18.894C0 15.3664 2.85417 12.5049 6.37299 12.5049ZM31.8649 12.5049C35.3836 12.505 38.2379 15.3665 38.2379 18.894C38.2378 22.4216 35.3854 25.283 31.8649 25.2832C28.3443 25.2832 25.4921 22.4217 25.4919 18.894C25.4919 15.3664 28.3442 12.5049 31.8649 12.5049ZM157.765 20.7593C157.646 20.8361 157.485 20.9079 157.278 20.9729C157.077 21.0321 156.85 21.0881 156.596 21.1414C156.343 21.1887 156.088 21.233 155.834 21.2744C155.581 21.3099 155.35 21.3426 155.143 21.3721C154.701 21.4372 154.313 21.5413 153.983 21.6833C153.653 21.8254 153.397 22.0181 153.213 22.2607C153.03 22.4975 152.938 22.7931 152.938 23.1482C152.938 23.6629 153.124 24.0564 153.496 24.3286C153.874 24.595 154.353 24.7278 154.931 24.7278C155.486 24.7277 155.976 24.6184 156.401 24.3994C156.826 24.1745 157.159 23.8724 157.402 23.4937C157.644 23.115 157.765 22.6863 157.765 22.207V20.7593ZM113.753 19.9341H118.354L116.126 13.0542H115.985L113.753 19.9341ZM100.191 16.0901C99.6187 16.0901 99.1107 16.223 98.668 16.4893C98.2311 16.7496 97.8884 17.1024 97.6404 17.5464C97.4117 17.9503 97.2881 18.3972 97.2653 18.8867H102.971C102.971 18.3422 102.854 17.8592 102.618 17.439C102.382 17.0189 102.053 16.6906 101.634 16.4539C101.221 16.2114 100.74 16.0901 100.191 16.0901ZM19.1165 0C22.6352 0.000154586 25.4895 2.85963 25.4895 6.38916C25.4893 9.91854 22.637 12.7769 19.1165 12.7771C15.5978 12.7771 12.7437 9.91863 12.7435 6.38916C12.7435 2.85954 15.5977 0 19.1165 0Z" fill="white"/>
</svg>
