<svg width="137" height="36" viewBox="0 0 137 36" fill="none" xmlns="http://www.w3.org/2000/svg">
<path d="M41.4267 17.9102L31.0703 35.8215H10.3576L0 17.9102L10.3576 0H31.0703L41.4267 17.9102ZM4.95751 17.9102L12.837 31.5369H28.5934L36.4728 17.9102L28.5934 4.28467H12.837L4.95751 17.9102ZM27.7278 5.78613L34.7405 17.9138L27.7278 30.0415H13.7025L6.68989 17.9138L13.7025 5.78613H27.7278ZM95.414 12.4353C96.1726 12.4353 96.8991 12.524 97.5926 12.7014C98.2921 12.879 98.9115 13.155 99.4509 13.5278C99.9962 13.9007 100.427 14.38 100.741 14.9658C101.055 15.5458 101.211 16.2414 101.211 17.052V26.2488H97.6195V24.3579H97.5132C97.2938 24.784 97.0003 25.1604 96.6329 25.4858C96.2653 25.8055 95.8234 26.0567 95.3076 26.2402C94.792 26.4177 94.1959 26.5063 93.5202 26.5063C92.6491 26.5063 91.8728 26.3552 91.1913 26.0535C90.5097 25.7456 89.9697 25.2937 89.5726 24.696C89.1814 24.0923 88.9857 23.3398 88.9857 22.4402C88.9858 21.683 89.1255 21.0471 89.4039 20.5322C89.6825 20.0174 90.062 19.6033 90.5421 19.2896C91.0221 18.976 91.5674 18.739 92.1779 18.5791C92.7944 18.4194 93.4412 18.306 94.1169 18.241C94.9106 18.1581 95.5505 18.0812 96.0363 18.0103C96.5224 17.9333 96.8757 17.8213 97.095 17.6733C97.3143 17.5254 97.4238 17.3064 97.4239 17.0166V16.9629C97.4239 16.4008 97.2464 15.9657 96.8909 15.658C96.5412 15.3502 96.0429 15.1966 95.3969 15.1965C94.7151 15.1965 94.1728 15.3475 93.7697 15.6494C93.3667 15.9453 93.0993 16.3178 92.9689 16.7676L89.4662 16.4832C89.6441 15.6548 89.9936 14.9382 90.5152 14.3347C91.0368 13.7252 91.7099 13.2576 92.5336 12.9321C93.3634 12.6007 94.3235 12.4354 95.414 12.4353ZM85.3401 12.6135H87.9099V15.4541H85.3401V22.0593C85.3401 22.4084 85.3936 22.6808 85.5002 22.876C85.6069 23.0654 85.7556 23.1983 85.9452 23.2751C86.1407 23.3521 86.3665 23.3911 86.6213 23.3911C86.7989 23.3911 86.9768 23.3754 87.1543 23.3459C87.3318 23.3104 87.468 23.2843 87.5627 23.2666L88.1593 26.0803C87.9695 26.1394 87.7023 26.2085 87.3585 26.2854C87.0148 26.3682 86.597 26.4178 86.1054 26.4355C85.1926 26.4712 84.3919 26.3499 83.7043 26.0718C83.0226 25.7935 82.4918 25.3614 82.1125 24.7754C81.7333 24.1896 81.5465 23.4497 81.5525 22.5562V15.4541H79.6857V12.6135H81.5525V9.3457H85.3401V12.6135ZM134.13 12.6135H136.7V15.4541H134.13V22.0593C134.13 22.4084 134.184 22.6808 134.29 22.876C134.397 23.0654 134.546 23.1983 134.735 23.2751C134.931 23.352 135.156 23.3911 135.411 23.3911C135.589 23.3911 135.767 23.3754 135.945 23.3459C136.122 23.3104 136.259 23.2843 136.354 23.2666L136.949 26.0803C136.759 26.1394 136.493 26.2085 136.149 26.2854C135.806 26.3683 135.387 26.4178 134.896 26.4355C133.983 26.4712 133.183 26.3498 132.494 26.0718C131.813 25.7935 131.282 25.3614 130.903 24.7754C130.523 24.1895 130.336 23.4497 130.343 22.5562V15.4541H128.476V12.6135H130.343V9.3457H134.13V12.6135ZM64.3584 21.8811H64.5271L68.9381 8.06763H73.2049L66.9282 26.2488H61.967L55.6806 8.06763H59.9571L64.3584 21.8811ZM78.3629 26.2488H74.5754V12.6135H78.3629V26.2488ZM107.187 26.2488H103.399V8.06763H107.187V26.2488ZM121.598 11.2366H113.391V15.5688H120.797V18.739H113.391V26.2488H109.541V8.06763H121.598V11.2366ZM127.153 26.2488H123.366V12.6135H127.153V26.2488ZM16.1819 10.072L11.6474 17.9138L16.1819 25.7556H25.2509L29.7854 17.9138L25.2509 10.072H16.1819ZM97.4508 19.928C97.3323 20.0048 97.1692 20.0766 96.9618 20.1416C96.7603 20.2008 96.532 20.2568 96.2771 20.3101C96.0222 20.3574 95.7667 20.4017 95.5118 20.4431C95.2571 20.4786 95.0259 20.5113 94.8186 20.5408C94.3741 20.6059 93.9855 20.7101 93.6535 20.8521C93.3221 20.9941 93.0645 21.1858 92.8808 21.4282C92.6971 21.665 92.6045 21.9618 92.6045 22.3169C92.6047 22.8314 92.7913 23.2252 93.1645 23.4973C93.5438 23.7637 94.0249 23.8965 94.6059 23.8965C95.1628 23.8964 95.6549 23.7871 96.0815 23.5681C96.5082 23.3433 96.8435 23.041 97.0865 22.6624C97.3292 22.2838 97.4508 21.8548 97.4508 21.3757V19.928ZM76.4777 7.02881C77.0406 7.02881 77.5207 7.21793 77.9179 7.59644C78.3208 7.96931 78.523 8.41711 78.523 8.93799C78.5229 9.46453 78.3207 9.91677 77.9179 10.2954C77.5206 10.6683 77.0408 10.8557 76.4777 10.8557C75.9146 10.8557 75.432 10.6682 75.0289 10.2954C74.6319 9.91676 74.4324 9.46455 74.4323 8.93799C74.4323 8.41711 74.6318 7.96931 75.0289 7.59644C75.4319 7.21804 75.9148 7.02881 76.4777 7.02881ZM125.268 7.02881C125.831 7.02881 126.311 7.21774 126.708 7.59644C127.111 7.96931 127.312 8.41711 127.312 8.93799C127.312 9.4644 127.111 9.91683 126.708 10.2954C126.311 10.6683 125.831 10.8557 125.268 10.8557C124.705 10.8557 124.221 10.6682 123.818 10.2954C123.421 9.91685 123.223 9.46437 123.223 8.93799C123.223 8.41711 123.421 7.96931 123.818 7.59644C124.221 7.21774 124.705 7.02885 125.268 7.02881Z" fill="white"/>
</svg>
