<svg width="162" height="39" viewBox="0 0 162 39" fill="none" xmlns="http://www.w3.org/2000/svg">
<path d="M24.7393 16.7174C28.6257 18.6811 31.1474 22.6629 31.1439 27.1153H31.1427C31.231 33.4278 25.785 38.9008 19.3989 38.7461C14.8235 38.6919 10.8691 36.0364 8.98705 32.036C17.8815 34.0082 26.4501 25.6069 24.7393 16.7174ZM109.891 13.6852C110.652 13.6852 111.29 13.8153 111.803 14.0758C112.317 14.3302 112.73 14.6495 113.043 15.034C113.362 15.4128 113.606 15.7864 113.777 16.1534H113.92V13.8622H117.665V27.6317C117.665 28.7918 117.382 29.763 116.816 30.5443C116.249 31.3254 115.464 31.9115 114.46 32.3021C113.463 32.6987 112.314 32.8965 111.016 32.8965C109.794 32.8965 108.745 32.7284 107.872 32.3912C107.004 32.0597 106.313 31.6066 105.799 31.0325C105.286 30.4584 104.952 29.8126 104.799 29.0965L108.288 28.6265C108.394 28.8986 108.562 29.1529 108.792 29.3895C109.023 29.6261 109.327 29.8163 109.704 29.9583C110.088 30.1063 110.555 30.1805 111.105 30.1805C111.925 30.1804 112.601 29.9787 113.132 29.5762C113.669 29.1798 113.938 28.5141 113.938 27.5792V25.0841H113.777C113.613 25.4628 113.365 25.8209 113.034 26.1583C112.704 26.4954 112.279 26.7704 111.76 26.9835C111.24 27.1965 110.619 27.3033 109.899 27.3033C108.878 27.3032 107.949 27.0662 107.111 26.5928C106.278 26.1133 105.613 25.383 105.118 24.4005C104.628 23.4121 104.383 22.1633 104.383 20.6541C104.383 19.1095 104.634 17.819 105.136 16.7833C105.637 15.7479 106.304 14.9727 107.136 14.4579C107.975 13.9429 108.893 13.6852 109.891 13.6852ZM6.53965 8.41783C4.64768 15.6746 9.68977 23.4464 17.0075 24.7154H17.0087C18.4818 24.999 20.1053 25.0294 21.5954 24.7899C18.0841 31.2349 8.40716 32.515 3.34463 27.1385C-2.27773 21.9287 -0.543769 11.496 6.53965 8.41783ZM16.507 14.0831C19.531 6.86231 29.9161 4.95467 35.3021 10.6871C40.7395 15.7595 39.3247 25.721 32.7366 29.0794C33.356 25.016 31.9877 20.8182 29.2469 17.9491C26.1091 14.528 21.0297 12.991 16.507 14.0831ZM87.9577 13.6852C88.8549 13.6852 89.6903 13.8299 90.4636 14.1197C91.2429 14.4037 91.9221 14.8334 92.5007 15.4076C93.085 15.9816 93.5396 16.7032 93.8644 17.5731C94.1891 18.4371 94.3514 19.4502 94.3514 20.6102V21.649H85.0891V21.6576C85.0891 22.3322 85.2125 22.9156 85.4604 23.4068C85.7142 23.8976 86.0718 24.2759 86.5319 24.5421C86.9924 24.8084 87.5392 24.9425 88.1708 24.9425C88.5898 24.9424 88.9732 24.8826 89.3215 24.7642C89.6697 24.6459 89.9686 24.4688 90.2164 24.232C90.4643 23.9953 90.6527 23.7049 90.7826 23.3617L94.2723 23.5924C94.0951 24.4327 93.7315 25.1671 93.1825 25.7945C92.6394 26.4158 91.9367 26.9017 91.0748 27.2508C90.219 27.5941 89.2302 27.7647 88.1087 27.7647C86.7095 27.7647 85.5044 27.4809 84.4949 26.9127C83.4917 26.3388 82.7183 25.5283 82.1753 24.481C81.6321 23.4276 81.3608 22.1812 81.3607 20.7432C81.3607 19.3405 81.6321 18.1089 82.1753 17.0494C82.7184 15.9901 83.4835 15.1644 84.4693 14.5726C85.461 13.9809 86.6239 13.6852 87.9577 13.6852ZM125.968 13.6852C126.866 13.6852 127.701 13.8298 128.474 14.1197C129.253 14.4037 129.932 14.8334 130.511 15.4076C131.095 15.9815 131.551 16.7033 131.875 17.5731C132.2 18.4371 132.362 19.4502 132.362 20.6102V21.649H123.099V21.6576C123.099 22.3322 123.223 22.9156 123.471 23.4068C123.725 23.8978 124.082 24.2759 124.542 24.5421C125.003 24.8084 125.549 24.9424 126.18 24.9425C126.6 24.9425 126.983 24.8826 127.332 24.7642C127.68 24.6459 127.979 24.4688 128.227 24.232C128.475 23.9953 128.662 23.7049 128.793 23.3617L132.283 23.5924C132.105 24.4327 131.743 25.1672 131.193 25.7945C130.65 26.4159 129.947 26.9017 129.085 27.2508C128.229 27.5941 127.24 27.7647 126.119 27.7647C124.719 27.7647 123.515 27.4809 122.505 26.9127C121.502 26.3388 120.729 25.5282 120.186 24.481C119.643 23.4276 119.371 22.1812 119.371 20.7432C119.371 19.3405 119.643 18.1089 120.186 17.0494C120.729 15.9902 121.493 15.1644 122.48 14.5726C123.471 13.9808 124.634 13.6852 125.968 13.6852ZM138.75 13.8622H141.31V16.7039H138.75V23.3092C138.751 23.6581 138.804 23.9307 138.91 24.1258C139.016 24.3152 139.165 24.4481 139.353 24.525C139.548 24.6019 139.772 24.6397 140.027 24.6397C140.203 24.6397 140.38 24.6253 140.557 24.5958C140.734 24.5602 140.871 24.5342 140.965 24.5164L141.558 27.3302C141.369 27.3892 141.103 27.4572 140.761 27.534C140.419 27.6169 140.003 27.6676 139.513 27.6854C138.604 27.721 137.807 27.5996 137.121 27.3216C136.443 27.0434 135.914 26.6112 135.536 26.0252C135.158 25.4394 134.973 24.6995 134.98 23.806V16.7039H133.119V13.8622H134.98V10.5956H138.75V13.8622ZM64.9156 12.4864H56.5299V16.8187H64.2874V19.9889H56.5299V24.3297H64.951V27.4986H52.6957V9.31749H64.9156V12.4864ZM74.9914 13.6852C75.936 13.6852 76.7595 13.8923 77.4619 14.3065C78.1645 14.7209 78.71 15.3131 79.0996 16.0826C79.4892 16.8461 79.6841 17.7576 79.6841 18.817V27.4986H75.9119V19.4908C75.9178 18.6564 75.7059 18.0052 75.2751 17.5377C74.8441 17.0644 74.2506 16.8273 73.4949 16.8272C72.9872 16.8272 72.5379 16.9378 72.1483 17.1568C71.7648 17.3757 71.4643 17.6952 71.246 18.1151C71.0336 18.5293 70.9233 19.0294 70.9173 19.6153V27.4986H67.1451V13.8622H70.7407V16.2682H70.9002C71.2013 15.4753 71.7067 14.8475 72.4149 14.3858C73.1233 13.9186 73.9821 13.6852 74.9914 13.6852ZM103.132 13.6668C103.321 13.6668 103.524 13.6785 103.743 13.7022C103.961 13.7259 104.154 13.7584 104.319 13.7999V17.1568C104.142 17.1035 103.896 17.0555 103.583 17.014C103.271 16.9727 102.985 16.9518 102.725 16.9518C102.17 16.9518 101.674 17.0731 101.237 17.3155C100.806 17.5523 100.463 17.8843 100.209 18.3104C99.9615 18.7365 99.838 19.2276 99.838 19.7838V27.4986H96.0646V13.8622H99.7223V16.2413H99.8648C100.113 15.3954 100.529 14.7568 101.113 14.3248C101.697 13.8868 102.37 13.6669 103.132 13.6668ZM146.792 27.4986H143.019V13.8622H146.792V27.4986ZM154.715 18.6302L157.275 13.8622H161.144L157.203 20.681L161.251 27.4986H157.398L154.715 22.7843L152.077 27.4986H148.181L152.217 20.681L148.321 13.8622H152.217L154.715 18.6302ZM111.095 16.6942C110.475 16.6942 109.953 16.8635 109.528 17.2008C109.103 17.5321 108.781 17.9934 108.562 18.5851C108.344 19.1768 108.235 19.8608 108.235 20.6358C108.235 21.4229 108.344 22.104 108.562 22.6781C108.787 23.2462 109.109 23.6877 109.528 24.0013C109.953 24.3089 110.475 24.4627 111.095 24.4627C111.703 24.4627 112.217 24.3117 112.636 24.0098C113.061 23.7022 113.386 23.2642 113.61 22.6964C113.84 22.1222 113.956 21.4348 113.956 20.6358C113.956 19.8372 113.843 19.1452 113.619 18.5594C113.395 17.9675 113.07 17.508 112.645 17.1825C112.22 16.857 111.703 16.6942 111.095 16.6942ZM7.89972 11.5807C7.87562 -0.214045 23.7382 -4.45451 29.5964 5.77989C20.4237 3.77726 11.7635 12.7984 14.0474 21.8455C10.3005 19.8325 7.89977 15.9325 7.89972 11.5807ZM126.03 16.5086C125.457 16.5087 124.949 16.6415 124.507 16.9078C124.071 17.1681 123.727 17.5198 123.479 17.9637C123.25 18.3678 123.126 18.8155 123.104 19.3053H128.811C128.811 18.7608 128.692 18.2778 128.457 17.8575C128.22 17.4374 127.892 17.1091 127.473 16.8724C127.06 16.6298 126.579 16.5086 126.03 16.5086ZM88.0199 16.5086C87.4472 16.5087 86.9393 16.6415 86.4966 16.9078C86.06 17.168 85.7181 17.5201 85.4702 17.9637C85.2413 18.3678 85.1166 18.8155 85.0939 19.3053H90.8009C90.8009 18.7608 90.6827 18.2778 90.4465 17.8575C90.2105 17.4376 89.8829 17.1091 89.4639 16.8724C89.0507 16.6298 88.5688 16.5086 88.0199 16.5086ZM144.914 8.27867C145.475 8.27874 145.953 8.46786 146.348 8.8463C146.75 9.21903 146.951 9.66601 146.951 10.1866C146.951 10.7134 146.75 11.1665 146.348 11.5453C145.953 11.918 145.475 12.1043 144.914 12.1043C144.354 12.1043 143.873 11.9181 143.471 11.5453C143.076 11.1665 142.878 10.7133 142.878 10.1866C142.878 9.66601 143.076 9.21903 143.471 8.8463C143.873 8.46765 144.354 8.27867 144.914 8.27867Z" fill="white"/>
</svg>
