<svg width="165" height="40" viewBox="0 0 165 40" fill="none" xmlns="http://www.w3.org/2000/svg">
<path d="M0.499606 0.499796C1.16776 -0.16667 2.24827 -0.166527 2.9166 0.499796L5.14635 2.72392C5.46602 3.04453 5.90211 3.22439 6.35423 3.22441H14.9073C15.8514 3.22465 16.6157 3.98678 16.6157 4.92851V13.4588C16.6157 13.9115 16.795 14.3473 17.1163 14.6661L18.8394 16.3848C19.5076 17.0512 20.5899 17.0509 21.2564 16.3848L22.9819 14.6661C23.3015 14.3454 23.4812 13.9115 23.4812 13.4588V4.92851C23.4812 3.98674 24.2455 3.22458 25.1896 3.22441H33.744C34.1961 3.22441 34.6304 3.04454 34.9518 2.72392L37.1804 0.502237C37.8486 -0.162486 38.9297 -0.162483 39.5961 0.502237C40.2643 1.16877 40.2643 2.24717 39.5961 2.91191L37.3688 5.13725C37.0476 5.45593 36.8671 5.89004 36.8671 6.34086V14.8736C36.8671 15.8153 36.1029 16.5789 35.1587 16.5789H26.6068C26.1528 16.5789 25.7179 16.7594 25.3965 17.0782L23.6734 18.7994C23.0055 19.466 23.0052 20.5457 23.6734 21.2102L25.3965 22.929C25.7179 23.2495 26.1528 23.4283 26.6068 23.4283H35.1587C36.1028 23.4283 36.8668 24.1907 36.8671 25.1324V33.6639C36.8671 34.1166 37.0474 34.5493 37.3688 34.8699L37.3725 34.8687L39.5998 37.0904C40.268 37.757 40.268 38.8346 39.5998 39.5013C38.9317 40.1656 37.8504 40.1657 37.184 39.5013L34.9531 37.2771C34.6336 36.9568 34.2002 36.778 33.7464 36.7779H25.1921C24.2497 36.7779 23.4824 36.0125 23.4824 35.0725V26.5423C23.4824 26.0895 23.3031 25.6567 22.9819 25.3362L21.2588 23.6162C20.5925 22.9518 19.51 22.9519 18.8418 23.6162L17.1187 25.3374C16.7973 25.6562 16.617 26.0913 16.617 26.5423V35.0725C16.617 36.0144 15.8528 36.7779 14.9086 36.7779H6.35423C5.90211 36.7779 5.46777 36.9584 5.14635 37.2771L2.91905 39.5013C2.25086 40.1659 1.17022 40.1659 0.502054 39.5013C-0.166153 38.8346 -0.166165 37.757 0.502054 37.0904L2.72936 34.8687C3.05079 34.5499 3.2311 34.1148 3.23111 33.6639V25.1311C3.23111 24.1894 3.99541 23.4272 4.93953 23.427H13.4926C13.9445 23.427 14.3779 23.247 14.6993 22.9266L16.4248 21.2078C17.0911 20.5413 17.0911 19.4617 16.4248 18.7969L14.6993 17.0757C14.3799 16.7557 13.9463 16.5765 13.4926 16.5765H4.93953C3.99551 16.5763 3.23127 15.814 3.23111 14.8724V6.34086C3.23106 5.88819 3.05075 5.45538 2.72936 5.13481L0.499606 2.91068C-0.166546 2.24425 -0.166524 1.16448 0.499606 0.499796ZM98.3639 14.9358C99.2657 14.9359 100.105 15.0816 100.882 15.3716C101.666 15.6556 102.348 16.0841 102.93 16.6582C103.517 17.2324 103.974 17.9549 104.301 18.825C104.627 19.6889 104.79 20.701 104.79 21.8609V22.8997H95.4807V22.9082C95.4807 23.583 95.6047 24.1663 95.8539 24.6575C96.1091 25.1486 96.4681 25.5277 96.9309 25.794C97.3935 26.0602 97.9423 26.1931 98.5769 26.1932C98.9982 26.1932 99.3844 26.1345 99.7346 26.0162C100.085 25.8978 100.384 25.7194 100.633 25.4827C100.882 25.2461 101.073 24.9567 101.203 24.6136L104.709 24.8443C104.531 25.6843 104.167 26.418 103.615 27.0452C103.069 27.6665 102.363 28.1524 101.497 28.5015C100.637 28.8448 99.6428 29.0166 98.5157 29.0166C97.1094 29.0166 95.898 28.7328 94.8835 28.1646C93.8747 27.5906 93.098 26.7793 92.5521 25.7317C92.0062 24.6782 91.7334 23.4321 91.7334 21.9939C91.7334 20.5914 92.0064 19.3607 92.5521 18.3013C93.0979 17.2422 93.8658 16.4164 94.8565 15.8245C95.8533 15.2326 97.023 14.9358 98.3639 14.9358ZM137.081 14.9358C138.463 14.9359 139.656 15.2327 140.658 15.8245C141.667 16.4103 142.444 17.2323 142.991 18.2915C143.536 19.345 143.809 20.5768 143.809 21.9854C143.809 23.3821 143.536 24.6101 142.991 25.6695C142.444 26.723 141.667 27.546 140.658 28.1377C139.656 28.7236 138.463 29.0166 137.081 29.0166C135.699 29.0166 134.503 28.7237 133.494 28.1377C132.492 27.546 131.718 26.7229 131.171 25.6695C130.625 24.6101 130.353 23.3821 130.353 21.9854C130.353 20.5768 130.625 19.345 131.171 18.2915C131.718 17.2325 132.492 16.4103 133.494 15.8245C134.503 15.2326 135.699 14.9358 137.081 14.9358ZM114.79 10.3204C115.822 10.3204 116.783 10.4702 117.673 10.772C118.563 11.0678 119.352 11.4886 120.04 12.033C120.734 12.5775 121.302 13.226 121.741 13.9776C122.179 14.7233 122.461 15.5464 122.586 16.4458H118.67C118.545 16.014 118.371 15.6321 118.145 15.3008C117.92 14.9634 117.643 14.6784 117.317 14.4475C116.996 14.2109 116.629 14.031 116.213 13.9068C115.804 13.7825 115.35 13.72 114.852 13.72C113.92 13.72 113.101 13.9505 112.395 14.4121C111.695 14.8738 111.149 15.5459 110.757 16.4275C110.366 17.3035 110.17 18.375 110.17 19.6416C110.17 20.908 110.363 21.9852 110.749 22.8728C111.134 23.7606 111.68 24.439 112.386 24.9065C113.092 25.3681 113.926 25.5987 114.888 25.5987C115.759 25.5986 116.503 25.4447 117.121 25.1372C117.744 24.8235 118.22 24.3823 118.546 23.814C118.861 23.2744 119.025 22.6411 119.041 21.9146H115.127V19.0203H122.755V21.3103C122.755 22.9083 122.418 24.282 121.741 25.4302C121.064 26.5724 120.132 27.4541 118.946 28.0755C117.759 28.6909 116.4 28.9983 114.869 28.9983C113.16 28.9983 111.659 28.6232 110.366 27.8716C109.072 27.1141 108.064 26.0394 107.34 24.649C106.623 23.2521 106.264 21.5947 106.264 19.677C106.264 18.2034 106.476 16.8895 106.904 15.7354C107.337 14.5753 107.942 13.5924 108.72 12.7874C109.497 11.9827 110.402 11.3704 111.434 10.9502C112.466 10.5301 113.585 10.3204 114.79 10.3204ZM72.3705 23.1219C72.3765 23.9263 72.5923 24.5624 73.0192 25.0298C73.4463 25.4974 74.0195 25.7317 74.7374 25.7317C75.1942 25.7317 75.6212 25.6276 76.0187 25.4204C76.4162 25.2074 76.7372 24.8935 76.9806 24.4793C77.2295 24.0651 77.3513 23.553 77.3453 22.9436V15.1141H81.1366V28.7505H77.497V26.2737H77.3538C77.0453 27.0725 76.5321 27.7147 75.8143 28.2C75.1023 28.6851 74.2327 28.9275 73.2064 28.9275C72.2927 28.9275 71.4883 28.7204 70.7943 28.3062C70.1002 27.8918 69.557 27.3032 69.1654 26.5398C68.7797 25.7763 68.5839 24.8611 68.578 23.7957V15.1141H72.3705V23.1219ZM60.3651 10.5682C61.7477 10.5682 62.9264 10.8312 63.8994 11.358C64.8725 11.8788 65.6141 12.6041 66.1243 13.5332C66.6404 14.4564 66.8989 15.5219 66.899 16.729C66.899 17.9364 66.6379 19.0028 66.1157 19.9261C65.5936 20.8494 64.8364 21.5682 63.8456 22.083C62.8606 22.5979 61.6675 22.8558 60.2672 22.8558H57.0278V28.7505H53.1741V10.5682H60.3651ZM90.5206 14.9187C90.7102 14.9188 90.9146 14.9305 91.1338 14.9541C91.3532 14.9778 91.5466 15.0103 91.7126 15.0518V18.4075C91.5348 18.3542 91.2888 18.3074 90.9747 18.2659C90.6602 18.2245 90.3718 18.2037 90.1107 18.2037C89.5529 18.2037 89.0543 18.3248 88.6152 18.5674C88.1824 18.8041 87.8386 19.1353 87.5835 19.5611C87.3343 19.9873 87.209 20.4793 87.209 21.0357V28.7505H83.4177V15.1141H87.094V17.4932H87.236C87.485 16.647 87.9032 16.0076 88.4904 15.5755C89.0778 15.1375 89.7552 14.9187 90.5206 14.9187ZM128.619 28.7505H124.827V10.5682H128.619V28.7505ZM150.111 24.2754H150.236L152.443 15.1141H156.208L158.451 24.2229H158.566L160.649 15.1141H164.476L160.764 28.7505H156.75L154.4 20.1739H154.231L151.882 28.7505H147.876L144.156 15.1141H147.992L150.111 24.2754ZM137.098 17.8216C136.464 17.8216 135.929 18.0026 135.496 18.3636C135.069 18.7246 134.746 19.2158 134.527 19.837C134.313 20.4584 134.206 21.1655 134.206 21.9585C134.206 22.7515 134.313 23.4587 134.527 24.0801C134.746 24.7016 135.069 25.1937 135.496 25.5547C135.929 25.9098 136.464 26.0869 137.098 26.087C137.727 26.087 138.252 25.9096 138.673 25.5547C139.094 25.1937 139.412 24.7016 139.625 24.0801C139.845 23.4586 139.956 22.7515 139.956 21.9585C139.956 21.1655 139.845 20.4584 139.625 19.837C139.412 19.2156 139.094 18.7247 138.673 18.3636C138.252 18.0026 137.727 17.8216 137.098 17.8216ZM98.4263 17.7593C97.8509 17.7593 97.3403 17.8922 96.8954 18.1585C96.4563 18.4189 96.1117 18.7716 95.8625 19.2156C95.6327 19.6195 95.5084 20.0665 95.4856 20.5559H101.22C101.22 20.0114 101.103 19.5284 100.865 19.1082C100.628 18.6882 100.298 18.3598 99.8765 18.1231C99.4614 17.8806 98.9779 17.7593 98.4263 17.7593ZM57.0278 19.7747H59.6443C60.3858 19.7747 60.997 19.647 61.4776 19.3926C61.9642 19.1322 62.3269 18.7741 62.5643 18.3184C62.8074 17.8569 62.929 17.3267 62.929 16.729C62.9289 16.1257 62.8074 15.5991 62.5643 15.1495C62.3269 14.6937 61.9642 14.341 61.4776 14.0923C60.9912 13.8381 60.3743 13.7115 59.6272 13.7115H57.0278V19.7747Z" fill="white"/>
</svg>
