<svg width="167" height="39" viewBox="0 0 167 39" fill="none" xmlns="http://www.w3.org/2000/svg">
<path d="M22.426 0V11.8738L30.7995 3.47656L35.1829 7.86987L26.8082 16.2671H38.6519V22.4817H26.8082L35.1829 30.8765L30.7995 35.2722L22.426 26.875V38.75H16.2271V26.875L7.85238 35.2722L3.46898 30.8765L11.8449 22.4817H0V16.2671H11.8449L3.46898 7.86987L7.85238 3.47656L16.2271 11.8738V0H22.426ZM81.0687 13.6853C81.8302 13.6853 82.4678 13.8155 82.9815 14.0759C83.4951 14.3304 83.9081 14.6507 84.2211 15.0354C84.5398 15.4141 84.7853 15.7866 84.9565 16.1536H85.0977V13.8635H88.8443V27.6318C88.8443 28.792 88.56 29.7632 87.9932 30.5444C87.4266 31.3255 86.6419 31.9117 85.6384 32.3022C84.6408 32.6988 83.4923 32.8967 82.1937 32.8967C80.9716 32.8967 79.9235 32.7286 79.0499 32.3914C78.1819 32.0599 77.4912 31.6068 76.9775 31.0327C76.464 30.4587 76.1301 29.8138 75.9766 29.0979L79.4663 28.6267C79.5725 28.899 79.7401 29.1541 79.9704 29.3909C80.2004 29.6275 80.5048 29.8165 80.8824 29.9585C81.2661 30.1065 81.7335 30.1807 82.2826 30.1807C83.1029 30.1806 83.7788 29.9788 84.3099 29.5764C84.8471 29.1799 85.116 28.5143 85.116 27.5793V25.0842H84.9565C84.7912 25.4629 84.543 25.8211 84.2125 26.1584C83.8819 26.4956 83.4571 26.7718 82.9377 26.9849C82.4183 27.1979 81.7974 27.3035 81.0772 27.3035C80.0562 27.3034 79.1268 27.0674 78.2888 26.5942C77.4563 26.1147 76.7916 25.3831 76.2956 24.4006C75.8058 23.4123 75.5614 22.1634 75.5614 20.6543C75.5614 19.1097 75.8122 17.8192 76.3139 16.7834C76.8156 15.7481 77.4822 14.9728 78.3144 14.458C79.1526 13.943 80.071 13.6853 81.0687 13.6853ZM160.655 13.6853C162.374 13.6853 163.725 14.05 164.711 14.7778C165.702 15.5058 166.281 16.4968 166.446 17.7515L162.993 17.9651C162.935 17.6692 162.808 17.4021 162.613 17.1655C162.418 16.9228 162.161 16.7301 161.843 16.5881C161.53 16.4401 161.154 16.366 160.718 16.366C160.133 16.366 159.641 16.4911 159.239 16.7395C158.838 16.9823 158.637 17.3077 158.637 17.7161C158.637 18.0415 158.767 18.3164 159.026 18.5413C159.286 18.766 159.731 18.9472 160.363 19.0833L162.825 19.5801C164.148 19.8523 165.133 20.2912 165.783 20.8948C166.432 21.4985 166.756 22.2917 166.756 23.2739C166.756 24.1675 166.494 24.9516 165.968 25.6262C165.449 26.3008 164.735 26.8271 163.826 27.2058C162.922 27.5787 161.88 27.7661 160.699 27.7661C158.899 27.7661 157.465 27.3898 156.396 26.6382C155.333 25.8806 154.711 24.8507 154.527 23.5486L158.237 23.3533C158.35 23.9038 158.622 24.3243 159.052 24.6143C159.483 24.8982 160.036 25.0403 160.709 25.0403C161.37 25.0403 161.901 24.9127 162.303 24.6582C162.71 24.3977 162.916 24.063 162.923 23.6548C162.916 23.3117 162.771 23.0302 162.488 22.8113C162.205 22.5866 161.767 22.4157 161.178 22.2974L158.823 21.8262C157.494 21.5599 156.504 21.0989 155.854 20.4419C155.211 19.7849 154.89 18.9463 154.89 17.9285C154.89 17.0527 155.128 16.2984 155.6 15.6653C156.077 15.0321 156.746 14.5436 157.609 14.2004C158.477 13.8572 159.492 13.6853 160.655 13.6853ZM152.776 27.4988H149.058V25.3149H148.898C148.721 25.6938 148.469 26.07 148.145 26.4429C147.825 26.8098 147.41 27.1144 146.896 27.3572C146.388 27.5998 145.768 27.7209 145.036 27.7209C144.004 27.7209 143.067 27.4552 142.229 26.9226C141.397 26.384 140.736 25.5937 140.246 24.552C139.762 23.5046 139.519 22.2202 139.519 20.6995C139.519 19.137 139.771 17.8375 140.273 16.8018C140.775 15.76 141.442 14.9814 142.273 14.4666C143.112 13.9457 144.03 13.6853 145.027 13.6853C145.789 13.6853 146.424 13.8154 146.932 14.0759C147.445 14.3304 147.858 14.6507 148.171 15.0354C148.49 15.4139 148.732 15.7868 148.898 16.1536H149.013V9.31763H152.776V27.4988ZM59.1784 9.31763C61.0024 9.31768 62.5729 9.68099 63.8894 10.4089C65.2057 11.131 66.2176 12.1702 66.9261 13.5254C67.6404 14.8808 67.9976 16.5031 67.9976 18.3911C67.9975 20.2848 67.6403 21.9128 66.9261 23.2739C66.2176 24.6349 65.1992 25.6796 63.8711 26.4075C62.5488 27.1354 60.9665 27.4988 59.1248 27.4988H52.6958V9.31763H59.1784ZM73.7922 27.4988H70.0188V13.8635H73.7922V27.4988ZM94.8703 27.4988H91.0981V13.8635H94.8703V27.4988ZM106.938 21.5332H107.15L112.145 9.31763H116.874V27.4988H113.155V15.6653H113.004L108.31 27.4109H105.778L101.085 15.6213H100.934V27.4988H97.2142V9.31763H101.943L106.938 21.5332ZM122.986 27.4988H119.214V13.8635H122.986V27.4988ZM133.106 13.6853C134.051 13.6854 134.875 13.8925 135.576 14.3066C136.278 14.721 136.825 15.3133 137.215 16.0828C137.604 16.8462 137.8 17.7578 137.8 18.8171V27.4988H134.026V19.491C134.032 18.6566 133.82 18.0054 133.389 17.5378C132.958 17.0647 132.365 16.8287 131.609 16.8286C131.102 16.8286 130.653 16.938 130.264 17.157C129.88 17.3759 129.577 17.695 129.359 18.1152C129.147 18.5294 129.038 19.0297 129.032 19.6155V27.4988H125.261V13.8635H128.855V16.2683H129.015C129.316 15.4756 129.821 14.8488 130.529 14.3872C131.238 13.9197 132.097 13.6853 133.106 13.6853ZM146.232 16.6943C145.612 16.6944 145.09 16.8636 144.665 17.2009C144.239 17.5381 143.918 18.0059 143.7 18.6035C143.482 19.2013 143.371 19.8939 143.371 20.6812C143.371 21.4742 143.482 22.176 143.7 22.7856C143.925 23.3889 144.246 23.8621 144.665 24.2053C145.09 24.5425 145.612 24.7119 146.232 24.7119C146.84 24.7119 147.354 24.5464 147.773 24.2151C148.198 23.8777 148.523 23.4065 148.747 22.8027C148.978 22.1991 149.092 21.4918 149.092 20.6812C149.092 19.8703 148.98 19.1659 148.756 18.5681C148.531 17.9705 148.207 17.5093 147.782 17.1838C147.356 16.8582 146.84 16.6943 146.232 16.6943ZM82.2729 16.6943C81.6531 16.6944 81.1308 16.8637 80.7058 17.2009C80.2808 17.5323 79.9587 17.9946 79.7402 18.5864C79.5219 19.1782 79.4127 19.8622 79.4127 20.6372C79.4128 21.424 79.522 22.1043 79.7402 22.6782C79.9647 23.2463 80.2866 23.6878 80.7058 24.0015C81.1308 24.3091 81.6531 24.4628 82.2729 24.4629C82.881 24.4629 83.3952 24.3119 83.8144 24.01C84.2392 23.7023 84.5642 23.2645 84.7885 22.6965C85.0187 22.1225 85.133 21.436 85.133 20.6372C85.133 19.8383 85.0213 19.1455 84.797 18.5596C84.5727 17.9678 84.2478 17.5093 83.8229 17.1838C83.3979 16.8582 82.881 16.6943 82.2729 16.6943ZM56.5301 24.2053H58.9653C60.0987 24.2053 61.0523 24.0047 61.8255 23.6023C62.6046 23.194 63.1892 22.5634 63.5789 21.7114C63.9743 20.8534 64.173 19.7462 64.1731 18.3911C64.1731 17.0476 63.9744 15.9487 63.5789 15.0964C63.1893 14.2447 62.608 13.6178 61.8352 13.2153C61.0618 12.813 60.1074 12.6111 58.9739 12.6111H56.5301V24.2053ZM71.9146 8.27881C72.4753 8.27885 72.9536 8.46787 73.349 8.84644C73.7505 9.21931 73.9517 9.66711 73.9517 10.188C73.9516 10.7145 73.7502 11.1668 73.349 11.5454C72.9535 11.9182 72.4754 12.1057 71.9146 12.1057C71.3537 12.1057 70.872 11.9183 70.4706 11.5454C70.0753 11.1668 69.8777 10.7144 69.8776 10.188C69.8776 9.66711 70.0749 9.21931 70.4706 8.84644C70.872 8.4677 71.3537 8.27881 71.9146 8.27881ZM92.9927 8.27881C93.5534 8.27882 94.0317 8.46793 94.4271 8.84644C94.8286 9.21931 95.0298 9.66711 95.0298 10.188C95.0297 10.7145 94.8284 11.1668 94.4271 11.5454C94.0316 11.9183 93.5536 12.1057 92.9927 12.1057C92.4319 12.1057 91.9512 11.9182 91.5499 11.5454C91.1544 11.1668 90.9558 10.7146 90.9557 10.188C90.9557 9.66711 91.1543 9.21931 91.5499 8.84644C91.9511 8.46801 92.4322 8.27881 92.9927 8.27881ZM121.11 8.27881C121.669 8.2789 122.148 8.46804 122.543 8.84644C122.944 9.21931 123.146 9.66711 123.146 10.188C123.146 10.7145 122.944 11.1668 122.543 11.5454C122.148 11.9182 121.67 12.1056 121.11 12.1057C120.549 12.1057 120.067 11.9183 119.666 11.5454C119.271 11.1668 119.072 10.7145 119.072 10.188C119.072 9.66711 119.271 9.21931 119.666 8.84644C120.067 8.46789 120.549 8.27881 121.11 8.27881Z" fill="white"/>
</svg>
