<svg width="155" height="38" viewBox="0 0 155 38" fill="none" xmlns="http://www.w3.org/2000/svg">
<path d="M12.4828 0V12.4097H24.9655V0H37.4483V12.6807H24.9655V24.8193H37.4483V37.5H24.9655V25.0903H12.4828V37.5H0V24.8193H12.4828V12.6807H0V0H12.4828ZM91.2095 13.6865C91.9718 13.6866 92.6105 13.8167 93.1245 14.0771C93.6386 14.3316 94.0524 14.6519 94.3655 15.0366C94.6845 15.4152 94.9293 15.788 95.1006 16.1548H95.2432V13.8647H98.9929V27.6343C98.9928 28.7941 98.7092 29.7645 98.142 30.5457C97.5746 31.3269 96.788 31.9128 95.7832 32.3035C94.7845 32.7 93.6348 32.8979 92.3346 32.8979C91.1116 32.8979 90.0628 32.7297 89.1883 32.3926C88.3196 32.0611 87.6277 31.608 87.1136 31.0339C86.5994 30.4599 86.2652 29.8151 86.1115 29.0991L89.604 28.6279C89.7104 28.9002 89.8795 29.1553 90.1099 29.3921C90.3404 29.6287 90.6448 29.8178 91.023 29.9597C91.407 30.1077 91.874 30.1819 92.4236 30.1819C93.2451 30.1819 93.9214 29.9801 94.4533 29.5776C94.9912 29.1811 95.2603 28.5157 95.2603 27.5806V25.0854H95.1006C94.9352 25.464 94.6877 25.8225 94.357 26.1597C94.0261 26.4969 93.5996 26.773 93.0794 26.9861C92.5594 27.199 91.9389 27.3059 91.218 27.3059C90.1955 27.3059 89.2644 27.069 88.4252 26.5955C87.5919 26.116 86.9274 25.3844 86.4309 24.4019C85.9404 23.4135 85.6946 22.1646 85.6946 20.6555C85.6947 19.111 85.9456 17.8203 86.448 16.7847C86.9504 15.7491 87.6188 14.9741 88.452 14.4592C89.2914 13.9443 90.2106 13.6865 91.2095 13.6865ZM78.0831 13.6865C78.9812 13.6865 79.8176 13.8324 80.5918 14.1223C81.3719 14.4063 82.0521 14.8349 82.6312 15.4089C83.2164 15.9831 83.6715 16.7056 83.9965 17.5757C84.3215 18.4396 84.4841 19.4517 84.4841 20.6116V21.6504H75.2111V21.6589C75.2111 22.3336 75.3346 22.917 75.5829 23.4082C75.837 23.8992 76.1947 24.2784 76.6556 24.5447C77.1166 24.8111 77.664 24.9438 78.2964 24.9438C78.7158 24.9438 79.0998 24.8851 79.4484 24.7668C79.7971 24.6485 80.0962 24.4701 80.3444 24.2334C80.5925 23.9967 80.7812 23.7063 80.9112 23.363L84.4049 23.595C84.2275 24.4351 83.8634 25.1686 83.3139 25.7959C82.7701 26.4173 82.0666 26.9031 81.2038 27.2522C80.3468 27.5955 79.357 27.7673 78.2342 27.7673C76.8336 27.7673 75.6279 27.4833 74.6174 26.9153C73.6125 26.3413 72.8377 25.53 72.2939 24.4824C71.7502 23.4289 71.4784 22.1828 71.4784 20.7446C71.4784 19.3422 71.7504 18.1114 72.2939 17.052C72.8377 15.9927 73.6035 15.1671 74.5906 14.5752C75.5834 13.9834 76.7475 13.6866 78.0831 13.6865ZM107.021 13.6865C107.778 13.6865 108.502 13.7752 109.194 13.9526C109.891 14.1303 110.509 14.4062 111.047 14.7791C111.59 15.1519 112.018 15.6313 112.331 16.217C112.645 16.797 112.802 17.4925 112.802 18.3032V27.5012H109.219V25.6091H109.113C108.895 26.0353 108.602 26.4116 108.236 26.7371C107.869 27.0567 107.428 27.308 106.914 27.4915C106.4 27.6688 105.806 27.7588 105.133 27.7588C104.264 27.7588 103.489 27.6077 102.81 27.3059C102.13 26.9981 101.593 26.5448 101.197 25.9473C100.807 25.3436 100.612 24.592 100.612 23.6926C100.612 22.9353 100.75 22.2984 101.027 21.7834C101.305 21.2687 101.684 20.8545 102.162 20.5408C102.641 20.2272 103.185 19.9902 103.793 19.8303C104.408 19.6706 105.053 19.5584 105.727 19.4934C106.519 19.4105 107.157 19.3337 107.642 19.2627C108.126 19.1857 108.478 19.0725 108.696 18.9246C108.915 18.7766 109.024 18.5578 109.024 18.2678V18.2141C109.024 17.652 108.847 17.2169 108.493 16.9092C108.144 16.6015 107.647 16.4478 107.003 16.4478C106.324 16.4478 105.782 16.5988 105.381 16.9006C104.979 17.1964 104.713 17.5692 104.583 18.0188L101.09 17.7356C101.267 16.907 101.617 16.1908 102.137 15.5872C102.657 14.9777 103.327 14.5101 104.148 14.1846C104.976 13.8531 105.934 13.6865 107.021 13.6865ZM149.048 13.6865C149.805 13.6865 150.529 13.7751 151.221 13.9526C151.918 14.1303 152.537 14.4062 153.075 14.7791C153.617 15.1519 154.046 15.6314 154.36 16.217C154.673 16.797 154.829 17.4925 154.829 18.3032V27.5012H151.247V25.6091H151.141C150.922 26.0351 150.63 26.4116 150.264 26.7371C149.898 27.0567 149.457 27.308 148.942 27.4915C148.428 27.6689 147.834 27.7588 147.161 27.7588C146.292 27.7588 145.517 27.6077 144.838 27.3059C144.158 26.998 143.62 26.545 143.224 25.9473C142.834 25.3436 142.639 24.592 142.639 23.6926C142.639 22.9351 142.778 22.2984 143.056 21.7834C143.334 21.2686 143.712 20.8545 144.19 20.5408C144.67 20.2272 145.212 19.9902 145.822 19.8303C146.437 19.6706 147.081 19.5584 147.754 19.4934C148.546 19.4105 149.184 19.3337 149.67 19.2627C150.154 19.1857 150.506 19.0725 150.724 18.9246C150.943 18.7766 151.054 18.5578 151.054 18.2678V18.2141C151.053 17.652 150.874 17.2169 150.52 16.9092C150.171 16.6017 149.675 16.4478 149.031 16.4478C148.352 16.4478 147.811 16.5989 147.409 16.9006C147.008 17.1964 146.74 17.5691 146.61 18.0188L143.118 17.7356C143.295 16.9072 143.643 16.1907 144.164 15.5872C144.684 14.9776 145.355 14.5101 146.176 14.1846C147.004 13.8531 147.961 13.6865 149.048 13.6865ZM63.7425 12.4878H55.3471V16.8213H63.1135V19.9902H55.3471V24.3311H63.7791V27.5012H51.5084V9.31885H63.7425V12.4878ZM69.7523 27.5012H65.9745V9.31885H69.7523V27.5012ZM122.837 13.6865C123.783 13.6865 124.608 13.8936 125.312 14.3079C126.014 14.7222 126.56 15.3145 126.951 16.084C127.341 16.8475 127.536 17.7589 127.536 18.8184V27.5012H123.76V19.4934C123.766 18.6591 123.553 18.0079 123.122 17.5403C122.69 17.0669 122.095 16.8298 121.339 16.8298C120.831 16.8299 120.381 16.9393 119.991 17.1582C119.608 17.377 119.306 17.6965 119.087 18.1165C118.875 18.5306 118.766 19.0309 118.759 19.6167V27.5012H114.983V13.8647H118.581V16.2708H118.741C119.042 15.4778 119.548 14.8502 120.257 14.3884C120.968 13.9211 121.827 13.6866 122.837 13.6865ZM140.909 16.3232L134.648 24.3848V24.4824H141.138V27.5012H129.693V25.2454L136.36 16.98V16.8823H129.923V13.8647H140.909V16.3232ZM109.051 21.1792C108.933 21.2561 108.77 21.3278 108.563 21.3928C108.363 21.452 108.135 21.508 107.881 21.5613C107.627 21.6086 107.373 21.653 107.119 21.6943C106.865 21.7298 106.634 21.7625 106.428 21.792C105.985 21.8571 105.597 21.9613 105.266 22.1033C104.935 22.2454 104.678 22.4379 104.494 22.6807C104.311 22.9174 104.22 23.2132 104.22 23.5681C104.22 24.0829 104.406 24.4763 104.778 24.7485C105.157 25.0148 105.635 25.1477 106.214 25.1477C106.77 25.1477 107.26 25.0383 107.686 24.8193C108.111 24.5945 108.445 24.2923 108.688 23.9136C108.93 23.5349 109.051 23.1061 109.051 22.627V21.1792ZM151.079 21.1792C150.961 21.2561 150.799 21.3278 150.592 21.3928C150.391 21.452 150.163 21.5081 149.909 21.5613C149.656 21.6087 149.4 21.653 149.147 21.6943C148.893 21.7298 148.662 21.7625 148.456 21.792C148.011 21.8571 147.624 21.9613 147.293 22.1033C146.962 22.2454 146.706 22.438 146.522 22.6807C146.339 22.9174 146.247 23.213 146.247 23.5681C146.247 24.0828 146.433 24.4763 146.807 24.7485C147.185 25.0149 147.663 25.1477 148.243 25.1477C148.798 25.1476 149.288 25.0383 149.714 24.8193C150.139 24.5945 150.474 24.2923 150.716 23.9136C150.958 23.5349 151.079 23.1062 151.079 22.627V21.1792ZM92.4151 16.6968C91.7948 16.6968 91.2716 16.865 90.8462 17.2021C90.4207 17.5335 90.0982 17.9958 89.8795 18.5876C89.6609 19.1795 89.5516 19.8633 89.5516 20.6384C89.5516 21.4255 89.6609 22.1066 89.8795 22.6807C90.1041 23.2485 90.4267 23.6892 90.8462 24.0027C91.2717 24.3103 91.7947 24.4641 92.4151 24.4641C93.0238 24.4641 93.5375 24.3131 93.9571 24.0112C94.3827 23.7035 94.7077 23.2658 94.9324 22.6978C95.1628 22.1237 95.2785 21.4373 95.2786 20.6384C95.2786 19.8395 95.1666 19.1467 94.9421 18.5608C94.7175 17.9692 94.3922 17.5105 93.9669 17.1851C93.5414 16.8595 93.0238 16.6968 92.4151 16.6968ZM78.1452 16.51C77.572 16.5101 77.0634 16.6429 76.6202 16.9092C76.1829 17.1695 75.8409 17.5224 75.5926 17.9663C75.3636 18.3703 75.2387 18.817 75.2159 19.3066H80.9295C80.9295 18.7621 80.8112 18.2791 80.5747 17.8589C80.3384 17.439 80.0104 17.1105 79.591 16.8738C79.1773 16.6312 78.6949 16.51 78.1452 16.51Z" fill="white"/>
</svg>
