<svg width="165" height="39" viewBox="0 0 165 39" fill="none" xmlns="http://www.w3.org/2000/svg">
<path d="M19.9469 25.0598C22.7305 25.0563 25.5423 26.1013 27.6654 28.1653L33.9117 34.231L29.2592 38.75L23.0129 32.6831C22.1571 31.8538 21.0665 31.4526 19.9469 31.449C18.8258 31.4527 17.738 31.854 16.8822 32.6831L10.6358 38.75L5.98335 34.231L12.2297 28.1653C14.3527 26.1014 17.1656 25.0565 19.9469 25.0598ZM10.8976 11.8811C13.0224 13.9431 14.0987 16.6747 14.0951 19.3762C14.0988 22.0781 13.0226 24.8092 10.8976 26.8713L4.6525 32.9382L0 28.4192L6.24635 22.3523C7.09813 21.521 7.51137 20.4623 7.51511 19.375C7.51137 18.2877 7.09813 17.229 6.24635 16.3977L0 10.3308L4.6525 5.81421L10.8976 11.8811ZM39.8963 10.3308L33.6512 16.3977C32.7991 17.2272 32.3862 18.2857 32.3824 19.375C32.3862 20.4624 32.7991 21.5209 33.6512 22.3523L39.8963 28.4192H39.8987L35.2462 32.9358L29.0011 26.8689C26.8762 24.8085 25.8 22.0768 25.8036 19.375C25.8 16.6731 26.8761 13.9408 29.0011 11.8787L35.2462 5.81177L39.8963 10.3308ZM76.2627 14.9365C77.16 14.9366 77.9953 15.0824 78.7686 15.3723C79.5477 15.6563 80.2272 16.0849 80.8057 16.6589C81.3901 17.233 81.8447 17.9557 82.1694 18.8257C82.4939 19.6896 82.6564 20.7018 82.6564 21.8616V22.9004H73.3928V22.9089C73.3928 23.5837 73.5175 24.167 73.7654 24.6582C74.0193 25.1492 74.3765 25.5285 74.8369 25.7947C75.2972 26.0609 75.8432 26.1938 76.4746 26.1938C76.8938 26.1938 77.2782 26.1352 77.6265 26.0168C77.9747 25.8985 78.2724 25.7201 78.5202 25.4834C78.7682 25.2467 78.9577 24.9564 79.0876 24.613L82.5761 24.845C82.3989 25.6849 82.0363 26.4187 81.4875 27.0459C80.9445 27.6672 80.2417 28.1531 79.3798 28.5022C78.5238 28.8456 77.5342 29.0173 76.4125 29.0173C75.0136 29.0173 73.8092 28.7334 72.7999 28.1653C71.7964 27.5913 71.0234 26.7799 70.4803 25.7324C69.9372 24.6789 69.6657 23.4328 69.6657 21.9946C69.6657 20.592 69.9373 19.3614 70.4803 18.302C71.0233 17.2428 71.7874 16.417 72.7731 15.8252C73.7648 15.2333 74.9285 14.9365 76.2627 14.9365ZM130.181 14.9365C131.078 14.9365 131.914 15.0823 132.688 15.3723C133.467 15.6563 134.146 16.085 134.724 16.6589C135.309 17.233 135.764 17.9556 136.088 18.8257C136.412 19.6896 136.575 20.7017 136.575 21.8616V22.9004H127.312V22.9089C127.312 23.5837 127.436 24.167 127.684 24.6582C127.938 25.1493 128.295 25.5284 128.755 25.7947C129.216 26.0609 129.762 26.1938 130.393 26.1938C130.812 26.1938 131.197 26.1352 131.546 26.0168C131.894 25.8985 132.192 25.7201 132.44 25.4834C132.688 25.2467 132.876 24.9563 133.006 24.613L136.496 24.845C136.319 25.685 135.954 26.4187 135.406 27.0459C134.863 27.6673 134.16 28.1531 133.298 28.5022C132.442 28.8455 131.453 29.0173 130.332 29.0173C128.932 29.0173 127.728 28.7333 126.719 28.1653C125.716 27.5913 124.942 26.78 124.399 25.7324C123.855 24.6789 123.584 23.4328 123.584 21.9946C123.584 20.5921 123.855 19.3614 124.399 18.302C124.942 17.2428 125.707 16.4171 126.693 15.8252C127.684 15.2334 128.847 14.9366 130.181 14.9365ZM144.416 14.9365C145.603 14.9365 146.642 15.1528 147.533 15.5847C148.425 16.0168 149.131 16.6236 149.649 17.4048C150.169 18.186 150.457 19.104 150.509 20.1575H146.949C146.849 19.4769 146.584 18.9286 146.152 18.5144C145.727 18.0943 145.17 17.8846 144.479 17.8845C143.895 17.8845 143.383 18.0437 142.947 18.363C142.515 18.6768 142.179 19.1362 141.937 19.74C141.695 20.3436 141.574 21.0742 141.574 21.9324C141.574 22.8021 141.692 23.5421 141.927 24.1516C142.169 24.7612 142.509 25.226 142.947 25.5457C143.383 25.8653 143.895 26.0254 144.479 26.0254C144.909 26.0253 145.296 25.9368 145.639 25.7593C145.986 25.5818 146.273 25.3238 146.497 24.9866C146.728 24.6433 146.878 24.2318 146.949 23.7524H150.509C150.451 24.7942 150.167 25.7121 149.658 26.5051C149.157 27.2921 148.463 27.907 147.577 28.3508C146.692 28.7947 145.645 29.0173 144.434 29.0173C143.042 29.0173 141.841 28.7205 140.839 28.1287C139.84 27.5309 139.074 26.7025 138.536 25.6433C138.005 24.584 137.74 23.3649 137.74 21.9861C137.74 20.5893 138.008 19.364 138.545 18.3105C139.088 17.2512 139.86 16.4256 140.857 15.8337C141.854 15.2361 143.041 14.9366 144.416 14.9365ZM103.389 14.9365C104.144 14.9365 104.868 15.0251 105.559 15.2026C106.255 15.3803 106.872 15.6562 107.409 16.0291C107.952 16.4019 108.381 16.8812 108.694 17.467C109.007 18.047 109.163 18.7426 109.163 19.5532V28.7512H105.585V26.8591H105.479C105.261 27.2851 104.969 27.6616 104.603 27.9871C104.237 28.3066 103.796 28.558 103.283 28.7415C102.769 28.919 102.176 29.0088 101.503 29.0088C100.635 29.0088 99.8618 28.8575 99.1831 28.5559C98.5042 28.2481 97.9665 27.795 97.571 27.1973C97.1814 26.5936 96.9866 25.842 96.9865 24.9426C96.9865 24.1851 97.1254 23.5484 97.4029 23.0334C97.6804 22.5186 98.0584 22.1045 98.5365 21.7908C99.0148 21.4772 99.5577 21.2402 100.166 21.0803C100.779 20.9206 101.423 20.8084 102.096 20.7434C102.886 20.6606 103.524 20.5837 104.008 20.5127C104.493 20.4357 104.844 20.3226 105.063 20.1746C105.281 20.0266 105.39 19.8076 105.39 19.5178V19.4641C105.39 18.902 105.213 18.4669 104.858 18.1592C104.51 17.8518 104.015 17.6978 103.372 17.6978C102.693 17.6978 102.152 17.8489 101.751 18.1506C101.35 18.4464 101.083 18.8191 100.953 19.2688L97.465 18.9856C97.6421 18.157 97.9904 17.4407 98.5097 16.8372C99.0293 16.2275 99.6994 15.7601 100.52 15.4346C101.346 15.1031 102.303 14.9365 103.389 14.9365ZM63.8894 22.0032H64.0489V10.5688H67.8649V28.7512H64.553L56.6628 17.3071H56.5301V28.7512H52.6958V10.5688H56.0613L63.8894 22.0032ZM89.7758 19.8816L92.3352 15.1147H96.2048L92.2646 21.9324L96.3107 28.7512H92.4594L89.7758 24.0369L87.1372 28.7512H83.2409L87.2785 21.9324L83.3821 15.1147H87.2785L89.7758 19.8816ZM124.47 13.7378H118.919V28.7512H115.13V13.7378H109.577V10.5688H124.47V13.7378ZM155.842 17.5208H156.002C156.308 16.7159 156.804 16.0844 157.49 15.6287C158.174 15.1672 159.034 14.9365 160.066 14.9365C161.011 14.9366 161.835 15.1438 162.537 15.5579C163.245 15.9662 163.795 16.5559 164.184 17.3254C164.579 18.0888 164.775 19.0032 164.769 20.0684V28.7512H160.995V20.7434C161.001 19.9029 160.79 19.2481 160.358 18.7805C159.933 18.3133 159.337 18.0799 158.57 18.0798C158.056 18.0798 157.601 18.1892 157.205 18.4082C156.816 18.627 156.51 18.9466 156.285 19.3665C156.067 19.7806 155.954 20.2809 155.948 20.8667V28.7512H152.176V10.5688H155.842V17.5208ZM105.417 22.4292C105.299 22.506 105.137 22.5779 104.93 22.6428C104.73 22.702 104.502 22.7581 104.248 22.8113C103.994 22.8587 103.74 22.903 103.486 22.9443C103.232 22.9798 103.002 23.0125 102.796 23.042C102.353 23.1071 101.966 23.2113 101.635 23.3533C101.305 23.4954 101.048 23.688 100.865 23.9307C100.682 24.1673 100.591 24.4633 100.591 24.8181C100.591 25.3328 100.777 25.7263 101.148 25.9985C101.526 26.2648 102.004 26.3976 102.583 26.3977C103.138 26.3977 103.628 26.2883 104.054 26.0693C104.478 25.8445 104.811 25.5422 105.053 25.1636C105.295 24.7849 105.417 24.3562 105.417 23.877V22.4292ZM130.244 17.76C129.671 17.76 129.163 17.8928 128.72 18.1592C128.284 18.4196 127.94 18.7723 127.692 19.2163C127.464 19.6202 127.339 20.0672 127.317 20.5566H133.024C133.024 20.0121 132.906 19.5291 132.67 19.1089C132.433 18.689 132.105 18.3604 131.686 18.1238C131.274 17.8814 130.793 17.7601 130.244 17.76ZM76.3248 17.76C75.7523 17.76 75.2443 17.893 74.8016 18.1592C74.3647 18.4196 74.0219 18.7723 73.7739 19.2163C73.5453 19.6202 73.4205 20.0671 73.3977 20.5566H79.1046C79.1046 20.0121 78.9865 19.5291 78.7503 19.1089C78.5142 18.689 78.1866 18.3604 77.7677 18.1238C77.3545 17.8813 76.8735 17.7601 76.3248 17.76ZM33.9117 4.51904L27.6654 10.5847C25.5423 12.6487 22.7305 13.6937 19.9469 13.6902C17.1656 13.6935 14.3527 12.6486 12.2297 10.5847L5.98335 4.51904L10.6346 0L16.8798 6.06689C17.7357 6.89456 18.826 7.29739 19.9457 7.30103C21.0654 7.2974 22.1558 6.8965 23.0117 6.06689L29.2568 0H29.2605L33.9117 4.51904Z" fill="white"/>
</svg>
