<svg width="96" height="96" viewBox="0 0 96 96" fill="none" xmlns="http://www.w3.org/2000/svg">
<path d="M90.24 49C90.24 45.88 89.96 42.88 89.44 40H48V57.04H71.68C70.64 62.52 67.52 67.16 62.84 70.28V81.36H77.12C85.44 73.68 90.24 62.4 90.24 49Z" fill="#4285F4"/>
<path d="M48.0007 92.0004C59.8807 92.0004 69.8407 88.0804 77.1207 81.3604L62.8407 70.2804C58.9207 72.9204 53.9207 74.5204 48.0007 74.5204C36.5607 74.5204 26.8407 66.8004 23.3607 56.4004H8.7207V67.7604C15.9607 82.1204 30.8007 92.0004 48.0007 92.0004Z" fill="#34A853"/>
<path d="M23.36 56.3593C22.48 53.7193 21.96 50.9193 21.96 47.9993C21.96 45.0793 22.48 42.2793 23.36 39.6393V28.2793H8.72C5.72 34.1993 4 40.8793 4 47.9993C4 55.1193 5.72 61.7993 8.72 67.7193L20.12 58.8393L23.36 56.3593Z" fill="#FBBC05"/>
<path d="M48.0007 21.52C54.4807 21.52 60.2407 23.76 64.8407 28.08L77.4407 15.48C69.8007 8.36 59.8807 4 48.0007 4C30.8007 4 15.9607 13.88 8.7207 28.28L23.3607 39.64C26.8407 29.24 36.5607 21.52 48.0007 21.52Z" fill="#EA4335"/>
</svg>
