<svg width="96" height="96" viewBox="0 0 96 96" fill="none" xmlns="http://www.w3.org/2000/svg">
<path d="M0 16C0 7.16345 7.16344 0 16 0H80C88.8366 0 96 7.16344 96 16V80C96 88.8366 88.8366 96 80 96H16C7.16345 96 0 88.8366 0 80V16Z" fill="#FF642D"/>
<path d="M72.7344 48.1016C72.7344 49.358 72.1062 49.515 70.5358 49.515C68.8083 49.515 68.4942 49.2009 68.3372 47.9446C68.0231 44.6467 65.8245 41.8199 62.0554 41.6628C60.9561 41.5058 60.642 41.1917 60.642 39.6212C60.642 38.2079 60.7991 37.5797 61.8984 37.5797C68.1801 37.7367 72.7344 42.9192 72.7344 48.1016ZM82 48.1016C82 38.3649 75.4042 28 60.0139 28H29.7044C29.0762 28 28.6051 28.3141 28.6051 28.9423C28.6051 29.2564 28.7621 29.5704 29.0762 29.7275C30.1755 30.6697 31.746 31.612 33.9446 32.7113C35.9861 33.8106 37.7136 34.4388 39.2841 35.067C39.9122 35.3811 40.2263 35.6952 40.2263 36.0092C40.2263 36.4804 39.9122 36.9515 39.127 36.9515H15.0993C14.3141 36.7945 14 37.2656 14 37.7367C14 38.2079 14.157 38.5219 14.4711 38.836C16.3557 40.8776 19.4965 43.3903 24.0508 46.2171C27.9769 48.7298 33.0023 51.3995 36.9284 53.2841C37.5566 53.5982 37.8707 53.9122 37.8707 54.3834C37.8707 54.8545 37.5566 55.1686 36.7714 55.1686H25.6212C24.9931 55.1686 24.679 55.4827 24.679 55.9538C24.679 56.2679 24.836 56.582 25.1501 56.8961C27.6628 59.2517 31.746 61.6074 37.0855 63.9631C44.3095 66.9469 51.5335 68.8314 59.6998 68.8314C75.2471 68.8314 82 57.2102 82 48.1016ZM61.7413 62.0785C54.2032 62.0785 47.7644 55.9538 47.7644 48.1016C47.7644 40.5635 54.0462 34.4388 61.7413 34.4388C69.5935 34.4388 75.7182 40.5635 75.7182 48.1016C75.7182 55.7968 69.5935 62.0785 61.7413 62.0785Z" fill="white"/>
</svg>
