<svg width="96" height="96" viewBox="0 0 96 96" fill="none" xmlns="http://www.w3.org/2000/svg">
<path d="M48 94.0591C73.8884 94.0591 94.8751 73.4374 94.8751 47.9993C94.8751 22.5611 73.8884 1.93945 48 1.93945C22.1117 1.93945 1.125 22.5611 1.125 47.9993C1.125 73.4374 22.1117 94.0591 48 94.0591Z" fill="#00AB00"/>
<path d="M64.783 34.0703C56.8765 34.0703 52.4504 39.223 51.1833 44.5278C49.7474 41.8248 48.6829 38.2094 47.8551 34.8475H36.925V48.4471C36.925 53.3802 34.678 57.0293 30.2856 57.0293C25.8931 57.0293 23.3759 53.3802 23.3759 48.4471L23.4265 34.8475H17.125V48.4471C17.125 52.4172 18.409 56.0157 20.7573 58.5835C23.173 61.2359 26.4674 62.6211 30.2854 62.6211C37.8876 62.6211 43.1924 56.7927 43.1924 48.4471V39.3076C43.9864 42.3147 45.8785 48.0925 49.4939 53.1608L46.1151 72.403H52.5179L54.7478 58.7695C55.4744 59.3778 56.2516 59.9183 57.0792 60.4082C59.2247 61.7597 61.6744 62.5201 64.2085 62.6044C64.2085 62.6044 64.5972 62.6213 64.7999 62.6213C72.6387 62.6213 78.8725 56.5564 78.8725 48.3629C78.8725 40.1691 72.6218 34.0703 64.783 34.0703ZM64.783 57.0126C59.9342 57.0126 56.7244 53.2621 55.8291 51.8091C56.9779 42.6188 60.3398 39.7131 64.783 39.7131C69.1754 39.7131 72.5879 43.2271 72.5879 48.3629C72.5879 53.4985 69.1754 57.0126 64.783 57.0126Z" fill="white"/>
</svg>
