<svg width="96" height="96" viewBox="0 0 96 96" fill="none" xmlns="http://www.w3.org/2000/svg">
<path d="M60.5098 92.9109L87.5608 87.0579C87.5608 87.0579 77.7988 21.0279 77.7208 20.5899C77.6668 20.1909 77.3368 19.8849 76.9318 19.8699C76.5688 19.8699 69.6988 19.3599 69.6988 19.3599C69.6988 19.3599 64.9198 14.5839 64.3048 14.0709C64.1758 13.9539 64.0258 13.8609 63.8608 13.7979L63.8518 13.7949L60.4258 92.9109H60.5098Z" fill="#5E8E3E"/>
<path d="M62.7573 13.6377C62.6823 13.6377 62.5323 13.7157 62.4663 13.7157C62.4003 13.7157 61.3833 13.9977 59.7903 14.5017C58.2033 9.87872 55.3803 5.61572 50.3883 5.61572H49.9563C48.8883 4.11572 47.1933 3.11972 45.2643 3.01172H45.2493C33.6063 3.01172 28.0413 17.5467 26.2983 24.9267C21.8223 26.2947 18.5643 27.3117 18.2013 27.4527C15.6693 28.2507 15.6003 28.3227 15.3063 30.7137C15.0243 32.4447 8.44531 83.4357 8.44531 83.4357L59.2833 92.9847L62.7573 13.6377ZM51.5403 8.80472C54.1413 9.08072 55.8183 12.0537 56.8983 15.3837C55.5903 15.8097 54.1413 16.2507 52.5573 16.7547V15.8097C52.5603 15.6627 52.5633 15.4887 52.5633 15.3147C52.5633 12.9837 52.1883 10.7427 51.4983 8.64272L51.5403 8.79272V8.80472ZM49.5183 17.1807V17.6877C46.6923 18.5577 43.5843 19.5027 40.5423 20.4477C41.3343 15.6267 44.2533 11.6157 48.2823 9.35072L48.3603 9.31172C49.1043 11.4267 49.5333 13.8657 49.5333 16.4067C49.5333 16.6797 49.5273 16.9527 49.5183 17.2257V17.1867V17.1807ZM44.8893 6.12572C45.4593 6.12572 45.9903 6.31472 46.4133 6.63572L46.4073 6.62972C41.1603 9.77372 37.5663 15.2127 37.0113 21.5217L37.0053 21.5937C34.5453 22.3917 32.1573 23.1117 29.9223 23.7597C31.8663 17.0667 36.5703 6.15872 44.8863 6.15872L44.8893 6.12572ZM46.9143 45.3957C44.9703 44.4357 42.6903 43.8537 40.2813 43.8057H40.2663C34.8423 43.8057 34.6293 47.2017 34.6293 48.0837C34.6293 52.7037 46.7763 54.5127 46.7763 65.4387C46.8183 65.8227 46.8393 66.2697 46.8393 66.7197C46.8393 73.7967 41.1033 79.5327 34.0263 79.5327C34.0203 79.5327 34.0113 79.5327 34.0053 79.5327C33.8553 79.5387 33.6813 79.5387 33.5073 79.5387C28.4793 79.5387 23.9463 77.4297 20.7423 74.0487L20.7333 74.0397L23.1543 66.2187C25.4763 68.2587 28.3893 69.6807 31.6053 70.2027L31.7043 70.2147C31.7403 70.2147 31.7793 70.2177 31.8213 70.2177C33.7593 70.2177 35.3343 68.6577 35.3613 66.7227C35.3613 60.6537 25.4103 60.3687 25.4103 50.3787C25.4103 50.3187 25.4103 50.2467 25.4103 50.1747C25.4103 41.0967 32.7693 33.7407 41.8443 33.7407C42.4293 33.7407 43.0083 33.7707 43.5783 33.8307L43.5063 33.8247C43.7373 33.8127 44.0073 33.8037 44.2803 33.8037C46.5483 33.8037 48.7023 34.3107 50.6283 35.2167L50.5383 35.1777L46.9953 45.3567L46.9143 45.3957Z" fill="#95BF47"/>
</svg>
