<svg width="28" height="28" viewBox="0 0 28 28" fill="none" xmlns="http://www.w3.org/2000/svg">
<path fill-rule="evenodd" clip-rule="evenodd" d="M15.1673 13.3271V8.16732C15.1673 7.52332 14.6447 7.00065 14.0007 7.00065C13.3567 7.00065 12.834 7.52332 12.834 8.16732V13.9876C12.8319 14.1935 12.8844 14.3969 12.9857 14.576C13.0994 14.7692 13.2493 14.9164 13.4286 15.0175L18.4691 17.9277C19.0269 18.2497 19.7408 18.0584 20.0628 17.5007C20.3848 16.9429 20.1935 16.229 19.6358 15.907L15.1673 13.3271ZM14.0007 2.33398C20.4441 2.33398 25.6673 7.55717 25.6673 14.0007C25.6673 20.4441 20.4441 25.6673 14.0007 25.6673C7.55717 25.6673 2.33398 20.4441 2.33398 14.0007C2.33398 7.55717 7.55717 2.33398 14.0007 2.33398Z" fill="#7D963D"/>
</svg>
