<svg width="34" height="34" viewBox="0 0 34 34" fill="none" xmlns="http://www.w3.org/2000/svg">
<path d="M19.4047 17.0008L26.7027 9.70273C27.3668 9.03867 27.3668 7.96289 26.7027 7.29883C26.0387 6.63477 24.9629 6.63477 24.2988 7.29883L17.0008 14.5969L9.70273 7.29883C9.03867 6.63477 7.96289 6.63477 7.29883 7.29883C6.63477 7.96289 6.63477 9.03867 7.29883 9.70273L14.5969 17.0008L7.29883 24.2988C6.63477 24.9629 6.63477 26.0387 7.29883 26.7027C7.63086 27.0348 8.06582 27.2008 8.50078 27.2008C8.93574 27.2008 9.3707 27.0348 9.70273 26.7027L17.0008 19.4047L24.2988 26.7027C24.6309 27.0348 25.0658 27.2008 25.5008 27.2008C25.9357 27.2008 26.3707 27.0348 26.7027 26.7027C27.3668 26.0387 27.3668 24.9629 26.7027 24.2988L19.4047 17.0008Z" fill="#FF3D00"/>
</svg>
