<svg width="28" height="28" viewBox="0 0 28 28" fill="none" xmlns="http://www.w3.org/2000/svg">
<path d="M23.625 22.166C23.625 21.6828 23.2332 21.291 22.75 21.291H21.875V23.041H22.75C23.2332 23.041 23.625 22.6492 23.625 22.166ZM25.375 22.166C25.375 23.6157 24.1997 24.791 22.75 24.791H21.875V25.666C21.875 26.1492 21.4832 26.541 21 26.541C20.5168 26.541 20.125 26.1492 20.125 25.666V24.791H17.5C17.0168 24.791 16.625 24.3992 16.625 23.916C16.625 23.4328 17.0168 23.041 17.5 23.041H20.125V21.291H19.25C17.8003 21.291 16.625 20.1157 16.625 18.666C16.625 17.2163 17.8003 16.041 19.25 16.041H20.125V15.166C20.125 14.6828 20.5168 14.291 21 14.291C21.4832 14.291 21.875 14.6828 21.875 15.166V16.041H24.5C24.9832 16.041 25.375 16.4328 25.375 16.916C25.375 17.3992 24.9832 17.791 24.5 17.791H21.875V19.541H22.75C24.1997 19.541 25.375 20.7163 25.375 22.166ZM18.375 18.666C18.375 19.1492 18.7668 19.541 19.25 19.541H20.125V17.791H19.25C18.7668 17.791 18.375 18.1828 18.375 18.666Z" fill="#7D963D"/>
<path d="M15.3364 23.0423C15.5688 22.4679 16.023 22.0069 16.5932 21.7662C15.7205 21.0173 15.1667 19.9075 15.1667 18.6673C15.1667 17.1241 16.0237 15.7829 17.287 15.0887C16.2532 14.2668 15.0355 13.668 13.706 13.3604C16.086 12.52 17.7917 10.2516 17.7917 7.58398C17.7917 4.20125 15.0494 1.45898 11.6667 1.45898C8.28392 1.45898 5.54167 4.20125 5.54167 7.58398C5.54167 10.2512 7.24669 12.5198 9.62614 13.3604C5.6157 14.2858 2.625 17.8757 2.625 22.1673C2.625 22.6506 3.01676 23.0423 3.5 23.0423H15.3364Z" fill="#7D963D"/>
</svg>
