<svg width="56" height="56" viewBox="0 0 56 56" fill="none" xmlns="http://www.w3.org/2000/svg">
<path d="M0 12C0 5.37258 5.37258 0 12 0H44C50.6274 0 56 5.37258 56 12V44C56 50.6274 50.6274 56 44 56H12C5.37258 56 0 50.6274 0 44V12Z" fill="#ECEFE2"/>
<path fill-rule="evenodd" clip-rule="evenodd" d="M33.1462 17.4375H22.8545V21.7708H16.3545V38.5625H39.6462V21.7708H33.1462V17.4375ZM31.5212 21.7708V19.0625H24.4795V21.7708H31.5212ZM20.9657 25.901L22.4481 26.3605C24.2291 26.9123 26.1148 27.1884 28.0005 27.1885H28.0021C29.8878 27.1884 31.7735 26.9123 33.5545 26.3605L35.0369 25.901L35.5179 27.4532L34.0355 27.9126C32.3539 28.4338 30.5894 28.7288 28.8138 28.7977V30.9801H27.1888V28.7977C25.4133 28.7288 23.6487 28.4338 21.9671 27.9126L20.4847 27.4532L20.9657 25.901Z" fill="#7D963D"/>
</svg>
