<svg width="56" height="56" viewBox="0 0 56 56" fill="none" xmlns="http://www.w3.org/2000/svg">
<path d="M0 12C0 5.37258 5.37258 0 12 0H44C50.6274 0 56 5.37258 56 12V44C56 50.6274 50.6274 56 44 56H12C5.37258 56 0 50.6274 0 44V12Z" fill="#ECEFE2"/>
<path fill-rule="evenodd" clip-rule="evenodd" d="M27.9997 16.3535C23.3628 16.3535 19.6038 20.1125 19.6038 24.7493C19.6038 29.3862 23.3628 33.1452 27.9997 33.1452C32.6366 33.1452 36.3955 29.3862 36.3955 24.7493C36.3955 20.1125 32.6366 16.3535 27.9997 16.3535ZM29.4172 22.2544L28.4099 20.1898C28.2391 19.8397 27.7603 19.8397 27.5894 20.1898L26.5821 22.2544C26.5153 22.3914 26.3897 22.4868 26.2443 22.511L24.0549 22.8752C23.6838 22.937 23.5359 23.4119 23.8012 23.6899L25.3687 25.3315C25.4725 25.4402 25.5204 25.5943 25.4975 25.746L25.152 28.0372C25.0935 28.4251 25.4808 28.7188 25.8159 28.5405L27.7907 27.4896C27.922 27.4198 28.0773 27.4198 28.2086 27.4896L30.1835 28.5405C30.5185 28.7188 30.9058 28.4251 30.8473 28.0372L30.5018 25.746C30.479 25.5943 30.5269 25.4402 30.6307 25.3315L32.1981 23.6899C32.4634 23.4119 32.3156 22.937 31.9445 22.8752L29.755 22.511C29.6096 22.4868 29.4841 22.3914 29.4172 22.2544ZM20.6834 31.1943L19.0069 34.6312C18.8547 34.943 18.7086 35.2425 18.623 35.4924C18.5646 35.6627 18.4884 35.9332 18.5349 36.2304C18.5395 36.3309 18.5618 36.4088 18.5763 36.4521C18.6225 36.5899 18.788 36.7942 18.9038 36.8765C19.2019 37.0883 19.5803 37.1526 19.9049 37.1619C20.2576 37.1718 20.6669 37.1199 21.1162 36.9985C21.4956 36.8959 21.7221 36.8357 21.8936 36.8074C22.0922 36.7655 22.1826 36.8776 22.203 36.9389C22.2778 37.0804 22.3592 37.2825 22.4985 37.6341C22.6967 38.1341 22.9126 38.5636 23.1451 38.8893C23.3442 39.1682 23.6874 39.5618 24.1946 39.6366C24.2773 39.6488 24.3613 39.6481 24.4438 39.6347C25.0124 39.542 25.2962 39.0785 25.4351 38.8151C25.5865 38.5282 25.7348 38.1352 25.8969 37.7055L27.1217 34.4605C24.5629 34.2321 22.2886 33.0152 20.6834 31.1943ZM30.1026 37.7056L28.8777 34.4606C31.4365 34.2322 33.7109 33.0152 35.3161 31.1943L36.9926 34.6313C37.1448 34.9432 37.291 35.2426 37.3766 35.4925C37.435 35.663 37.5111 35.9335 37.4646 36.2306C37.4601 36.331 37.4378 36.4089 37.4233 36.4522C37.377 36.59 37.2116 36.7944 37.0957 36.8766C36.7976 37.0884 36.4192 37.1529 36.0947 37.1621C35.7419 37.172 35.3326 37.1201 34.8833 36.9986C34.504 36.8961 34.2774 36.8359 34.1059 36.8075C33.9073 36.7656 33.817 36.8777 33.7966 36.939C33.7217 37.0805 33.6404 37.2826 33.5011 37.6342C33.3028 38.1344 33.087 38.5637 32.8544 38.8894C32.6554 39.1683 32.3121 39.5619 31.805 39.6367C31.7223 39.649 31.6382 39.6483 31.5557 39.6349C30.9872 39.5423 30.7033 39.0786 30.5644 38.8152C30.413 38.5284 30.2648 38.1354 30.1026 37.7056Z" fill="#7D963D"/>
</svg>
