<svg width="56" height="56" viewBox="0 0 56 56" fill="none" xmlns="http://www.w3.org/2000/svg">
<path d="M0 12C0 5.37258 5.37258 0 12 0H44C50.6274 0 56 5.37258 56 12V44C56 50.6274 50.6274 56 44 56H12C5.37258 56 0 50.6274 0 44V12Z" fill="#7D963D" fill-opacity="0.15"/>
<path fill-rule="evenodd" clip-rule="evenodd" d="M28.0006 16.3535C23.3638 16.3535 19.6048 20.1125 19.6048 24.7493C19.6048 29.3862 23.3638 33.1452 28.0006 33.1452C32.6375 33.1452 36.3965 29.3862 36.3965 24.7493C36.3965 20.1125 32.6375 16.3535 28.0006 16.3535ZM29.4182 22.2544L28.4109 20.1898C28.2401 19.8397 27.7612 19.8397 27.5904 20.1898L26.5831 22.2544C26.5163 22.3914 26.3907 22.4868 26.2453 22.511L24.0558 22.8752C23.6847 22.937 23.5369 23.4119 23.8022 23.6899L25.3696 25.3315C25.4735 25.4402 25.5213 25.5943 25.4985 25.746L25.153 28.0372C25.0945 28.4251 25.4818 28.7188 25.8169 28.5405L27.7917 27.4896C27.923 27.4198 28.0783 27.4198 28.2096 27.4896L30.1844 28.5405C30.5195 28.7188 30.9068 28.4251 30.8483 28.0372L30.5028 25.746C30.48 25.5943 30.5278 25.4402 30.6316 25.3315L32.1991 23.6899C32.4644 23.4119 32.3165 22.937 31.9455 22.8752L29.756 22.511C29.6106 22.4868 29.485 22.3914 29.4182 22.2544ZM20.6843 31.1943L19.0079 34.6312C18.8557 34.943 18.7096 35.2425 18.624 35.4924C18.5656 35.6627 18.4894 35.9332 18.5358 36.2304C18.5405 36.3309 18.5627 36.4088 18.5772 36.4521C18.6235 36.5899 18.789 36.7942 18.9048 36.8765C19.2028 37.0883 19.5813 37.1526 19.9058 37.1619C20.2586 37.1718 20.6679 37.1199 21.1172 36.9985C21.4965 36.8959 21.7231 36.8357 21.8946 36.8074C22.0932 36.7655 22.1836 36.8776 22.2039 36.9389C22.2788 37.0804 22.3601 37.2825 22.4995 37.6341C22.6977 38.1341 22.9136 38.5636 23.1461 38.8893C23.3451 39.1682 23.6884 39.5618 24.1955 39.6366C24.2782 39.6488 24.3623 39.6481 24.4448 39.6347C25.0134 39.542 25.2972 39.0785 25.4361 38.8151C25.5875 38.5282 25.7357 38.1352 25.8979 37.7055L27.1227 34.4605C24.5639 34.2321 22.2896 33.0152 20.6843 31.1943ZM30.1036 37.7056L28.8787 34.4606C31.4375 34.2322 33.7119 33.0152 35.317 31.1943L36.9936 34.6313C37.1458 34.9432 37.292 35.2426 37.3775 35.4925C37.4359 35.663 37.5121 35.9335 37.4656 36.2306C37.4611 36.331 37.4388 36.4089 37.4242 36.4522C37.378 36.59 37.2126 36.7944 37.0966 36.8766C36.7986 37.0884 36.4202 37.1529 36.0956 37.1621C35.7429 37.172 35.3336 37.1201 34.8843 36.9986C34.505 36.8961 34.2783 36.8359 34.1069 36.8075C33.9083 36.7656 33.8179 36.8777 33.7976 36.939C33.7227 37.0805 33.6413 37.2826 33.502 37.6342C33.3038 38.1344 33.088 38.5637 32.8554 38.8894C32.6564 39.1683 32.3131 39.5619 31.806 39.6367C31.7233 39.649 31.6391 39.6483 31.5567 39.6349C30.9882 39.5423 30.7043 39.0786 30.5653 38.8152C30.414 38.5284 30.2658 38.1354 30.1036 37.7056Z" fill="#7D963D"/>
</svg>
