<svg width="96" height="96" viewBox="0 0 96 96" fill="none" xmlns="http://www.w3.org/2000/svg">
<path d="M21.3201 13.0887C23.9878 12.1374 26.8812 12.0176 29.6184 12.7451C32.3556 13.4725 34.8077 15.0131 36.6511 17.1633C38.4945 19.3134 39.6424 21.9721 39.9432 24.7883C40.2441 27.6045 39.6837 30.4457 38.3361 32.9367L81.1721 75.7767L75.5161 81.4327L32.6761 38.5927C30.1844 39.9363 27.3441 40.4935 24.5294 40.1907C21.7148 39.888 19.0579 38.7395 16.909 36.8968C14.76 35.054 13.2198 32.6034 12.4913 29.8678C11.7628 27.1323 11.8802 24.2402 12.8281 21.5727L21.7761 30.5207C22.9077 31.6137 24.4233 32.2184 25.9965 32.2048C27.5697 32.1911 29.0746 31.5601 30.187 30.4476C31.2995 29.3352 31.9305 27.8303 31.9442 26.2571C31.9578 24.684 31.3531 23.1683 30.2601 22.0367L21.3201 13.0887ZM62.7881 20.6207L75.5161 13.5487L81.1721 19.2087L74.1001 31.9367L67.0281 33.3487L58.5481 41.8327L52.8881 36.1767L61.3721 27.6927L62.7881 20.6207ZM35.9161 53.1487L41.5761 58.8047L20.3601 80.0167C19.6389 80.74 18.6684 81.1599 17.6474 81.1905C16.6265 81.2211 15.6326 80.8599 14.8694 80.1812C14.1062 79.5024 13.6316 78.5573 13.5428 77.5398C13.4541 76.5223 13.7579 75.5094 14.3921 74.7087L14.7041 74.3607L35.9161 53.1487Z" fill="#7D963D"/>
</svg>
