<svg width="96" height="96" viewBox="0 0 96 96" fill="none" xmlns="http://www.w3.org/2000/svg">
<path d="M48 8C49.0609 8 50.0783 8.42143 50.8284 9.17157C51.5786 9.92172 52 10.9391 52 12C52 13.0609 51.5786 14.0783 50.8284 14.8284C50.0783 15.5786 49.0609 16 48 16C41.671 16 35.4841 17.8768 30.2218 21.393C24.9594 24.9092 20.8579 29.9069 18.4359 35.7541C16.0139 41.6014 15.3801 48.0355 16.6149 54.2429C17.8496 60.4503 20.8973 66.1521 25.3726 70.6274C29.8479 75.1027 35.5497 78.1504 41.7571 79.3851C47.9645 80.6199 54.3986 79.9862 60.2459 77.5641C66.0931 75.1421 71.0908 71.0406 74.607 65.7782C78.1232 60.5159 80 54.329 80 48C80 46.9391 80.4214 45.9217 81.1716 45.1716C81.9217 44.4214 82.9391 44 84 44C85.0609 44 86.0783 44.4214 86.8284 45.1716C87.5786 45.9217 88 46.9391 88 48C88 70.092 70.092 88 48 88C25.908 88 8 70.092 8 48C8 25.908 25.908 8 48 8ZM48 24C49.0609 24 50.0783 24.4214 50.8284 25.1716C51.5786 25.9217 52 26.9391 52 28C52 29.0609 51.5786 30.0783 50.8284 30.8284C50.0783 31.5786 49.0609 32 48 32C44.8355 32 41.7421 32.9384 39.1109 34.6965C36.4797 36.4546 34.4289 38.9534 33.2179 41.8771C32.0069 44.8007 31.6901 48.0177 32.3074 51.1214C32.9248 54.2251 34.4487 57.0761 36.6863 59.3137C38.9239 61.5513 41.7749 63.0752 44.8786 63.6926C47.9823 64.3099 51.1993 63.9931 54.1229 62.7821C57.0466 61.5711 59.5454 59.5203 61.3035 56.8891C63.0616 54.2579 64 51.1645 64 48C64 46.9391 64.4214 45.9217 65.1716 45.1716C65.9217 44.4214 66.9391 44 68 44C69.0609 44 70.0783 44.4214 70.8284 45.1716C71.5786 45.9217 72 46.9391 72 48C72 52.7467 70.5924 57.3869 67.9553 61.3337C65.3181 65.2805 61.5698 68.3566 57.1844 70.1731C52.799 71.9896 47.9734 72.4649 43.3178 71.5388C38.6623 70.6128 34.3859 68.327 31.0294 64.9706C27.673 61.6141 25.3872 57.3377 24.4612 52.6822C23.5351 48.0266 24.0104 43.201 25.8269 38.8156C27.6434 34.4302 30.7195 30.6819 34.6663 28.0447C38.6131 25.4076 43.2533 24 48 24ZM74.284 8.4C74.8144 8.4 75.3231 8.61071 75.6982 8.98579C76.0733 9.36086 76.284 9.86957 76.284 10.4V17.72C76.2851 18.2497 76.4962 18.7574 76.8712 19.1316C77.2462 19.5058 77.7543 19.716 78.284 19.716H85.6C86.1304 19.716 86.6391 19.9267 87.0142 20.3018C87.3893 20.6769 87.6 21.1856 87.6 21.716V25.376L80.048 32.928C78.5481 34.4284 76.5136 35.2715 74.392 35.272H66.392L50.832 50.828C50.0776 51.5566 49.0672 51.9598 48.0184 51.9507C46.9696 51.9416 45.9664 51.5209 45.2247 50.7793C44.4831 50.0376 44.0624 49.0344 44.0533 47.9856C44.0442 46.9368 44.4474 45.9264 45.176 45.172L60.736 29.616V21.616C60.7354 19.495 61.5771 17.4606 63.076 15.96L70.636 8.4H74.284Z" fill="#7D963D"/>
</svg>
