<svg width="56" height="56" viewBox="0 0 56 56" fill="none" xmlns="http://www.w3.org/2000/svg">
<path d="M0 12C0 5.37258 5.37258 0 12 0H44C50.6274 0 56 5.37258 56 12V44C56 50.6274 50.6274 56 44 56H12C5.37258 56 0 50.6274 0 44V12Z" fill="#ECEFE2"/>
<path fill-rule="evenodd" clip-rule="evenodd" d="M29.0041 20.6877C29.7346 20.017 30.6751 19.7621 31.5734 19.9205C32.1626 20.0244 32.5561 20.5862 32.4522 21.1754C32.3484 21.7647 31.7865 22.1581 31.1973 22.0543C30.9607 22.0126 30.7014 22.0707 30.4695 22.2837C29.4905 23.1825 28.5938 24.0681 27.7538 24.9538C27.342 25.3879 26.6564 25.4061 26.2223 24.9944C25.7881 24.5827 25.77 23.897 26.1817 23.4629C27.0557 22.5413 27.988 21.6206 29.0041 20.6877ZM19.9527 27.8759C19.5331 27.6404 18.9491 27.7331 18.6001 28.3163C18.2714 28.8656 18.3289 29.6046 18.7111 30.0739L20.3523 32.0892C20.9857 32.8669 21.3945 33.3654 21.7302 33.6832C21.8903 33.8347 21.9939 33.9057 22.0554 33.9381C22.0768 33.9493 22.0904 33.9545 22.0971 33.9568C22.1018 33.9551 22.1085 33.9524 22.1175 33.9483C22.1619 33.928 22.2446 33.8798 22.3755 33.7698C22.8338 33.3853 23.5172 33.4449 23.9018 33.9032C24.2864 34.3616 24.2267 35.0448 23.7684 35.4295C23.3274 35.7997 22.7735 36.1318 22.0797 36.1249C21.3006 36.1171 20.7086 35.6997 20.2406 35.2566C19.7901 34.8301 19.2925 34.219 18.7176 33.5129L17.0311 31.4421C16.0615 30.2515 15.9537 28.5192 16.7409 27.2038C17.6666 25.6569 19.5272 25.1528 21.0128 25.9863C21.5346 26.279 21.7203 26.9393 21.4276 27.4612C21.1348 27.9829 20.4745 28.1686 19.9527 27.8759Z" fill="#7D963D"/>
<path d="M34.8812 20.8831C36.2294 19.6716 38.2002 20.0167 39.1951 21.463C40.1104 22.7936 39.9476 24.6786 38.7465 25.7815C38.0317 26.4379 37.3569 27.0438 36.711 27.6239C34.6398 29.4836 32.8668 31.0758 31.0317 33.2027L30.9957 33.2445C30.3424 34.0019 29.8025 34.6277 29.3291 35.0569C28.8496 35.4919 28.2944 35.8626 27.6035 35.8558C26.9254 35.8492 26.3915 35.4951 25.9301 35.0677C25.4834 34.6537 24.985 34.0547 24.3888 33.3382L22.6756 31.2795C21.7588 30.1777 21.6535 28.5621 22.402 27.3379C23.5011 25.5404 25.9264 25.3378 27.2655 26.9804L28.1393 28.052C30.1117 25.5993 32.2087 23.2845 34.8812 20.8831Z" fill="#7D963D"/>
</svg>
