<svg width="28" height="28" viewBox="0 0 28 28" fill="none" xmlns="http://www.w3.org/2000/svg">
<path fill-rule="evenodd" clip-rule="evenodd" d="M15.0813 6.12521C15.868 5.40294 16.8809 5.12846 17.8483 5.29899C18.4828 5.41084 18.9066 6.01592 18.7947 6.65047C18.6829 7.28502 18.0778 7.70875 17.4432 7.59691C17.1884 7.55198 16.9092 7.61457 16.6595 7.84397C15.6051 8.81192 14.6395 9.76562 13.7349 10.7195C13.2914 11.187 12.553 11.2066 12.0855 10.7632C11.618 10.3198 11.5984 9.58137 12.0418 9.11385C12.9831 8.12136 13.9871 7.12989 15.0813 6.12521ZM5.3337 13.8663C4.88183 13.6128 4.25288 13.7125 3.87703 14.3407C3.52304 14.9322 3.58501 15.7281 3.99659 16.2335L5.76406 18.4037C6.44615 19.2413 6.88642 19.7782 7.24795 20.1203C7.4203 20.2836 7.53193 20.36 7.59809 20.3949C7.62112 20.407 7.63576 20.4126 7.64301 20.415C7.64808 20.4132 7.65533 20.4103 7.66502 20.4058C7.71281 20.384 7.80192 20.3321 7.94289 20.2137C8.43643 19.7995 9.17232 19.8638 9.58654 20.3573C10.0008 20.8509 9.93646 21.5867 9.44293 22.001C8.96796 22.3997 8.37145 22.7574 7.62425 22.7499C6.7853 22.7415 6.14776 22.292 5.64376 21.8148C5.15859 21.3555 4.62274 20.6974 4.00352 19.9369L2.18735 17.7069C1.14316 16.4247 1.02704 14.5592 1.87482 13.1425C2.8717 11.4766 4.87544 10.9338 6.47535 11.8314C7.03729 12.1466 7.23726 12.8577 6.922 13.4197C6.60674 13.9816 5.89563 14.1815 5.3337 13.8663Z" fill="#7D963D"/>
<path d="M21.4105 6.33427C22.8624 5.02964 24.9848 5.4012 26.0563 6.95881C27.042 8.39175 26.8666 10.4217 25.5731 11.6095C24.8034 12.3164 24.0767 12.9689 23.3811 13.5936C21.1505 15.5964 19.2412 17.311 17.265 19.6016L17.2261 19.6466C16.5226 20.4622 15.9411 21.1362 15.4313 21.5984C14.9149 22.0668 14.317 22.4661 13.573 22.4587C12.8427 22.4516 12.2678 22.0703 11.7709 21.61C11.2899 21.1642 10.7531 20.5191 10.1111 19.7475L8.26608 17.5304C7.27874 16.3439 7.16529 14.604 7.97141 13.2856C9.15504 11.3499 11.7669 11.1317 13.209 12.9006L14.15 14.0546C16.2741 11.4133 18.5324 8.92037 21.4105 6.33427Z" fill="#7D963D"/>
</svg>
