<svg width="217" height="30" viewBox="0 0 217 30" fill="none" xmlns="http://www.w3.org/2000/svg">
<path d="M8.00035 22.8164V4.09641H0.000351608V0.256405H21.8884V4.09641H13.8884V22.8164H8.00035ZM15.9379 18.1124C15.9379 14.2404 21.1539 12.7044 28.8339 12.7044H30.6259C31.2019 8.99241 27.2339 7.93641 25.2819 10.9124H19.2979C20.8659 6.72041 24.7379 6.11241 28.6099 6.14441C34.9139 6.2084 37.0259 9.08841 37.0259 14.4324V22.8164H31.1379V18.3684C29.4419 21.7284 25.7619 23.1684 22.4659 23.0404C19.0099 22.9444 15.9379 21.1524 15.9379 18.1124ZM29.6979 16.2564C24.6739 16.0964 21.8259 16.2884 21.8259 17.8564C21.8259 18.9124 23.2019 19.6164 24.9619 19.5844C26.9459 19.5844 29.3779 18.6564 30.7859 16.2884L29.6979 16.2564ZM38.3129 22.8164V6.30441H44.2009V12.0964C44.5849 10.4004 47.0809 6.27241 51.8809 6.27241H53.2569V10.4644H50.6969C46.0889 10.4644 44.2009 13.6964 44.2009 18.8164V22.8164H38.3129ZM54.9476 22.8164V6.27241H60.8356V22.8164H54.9476ZM57.8916 5.37641C55.7476 5.37641 54.5316 4.4164 54.5316 2.68841C54.5316 0.960405 55.7476 0.000404358 57.8916 0.000404358C60.0676 0.000404358 61.2196 0.960405 61.2196 2.68841C61.2196 4.4164 60.0676 5.37641 57.8916 5.37641ZM78.5436 19.3284C77.2956 21.2164 74.5116 23.1684 71.6316 23.1684C65.8716 23.1684 62.0316 19.5844 62.0316 14.5924C62.0316 9.69641 65.8076 6.01641 71.3756 6.01641C74.4156 6.01641 77.2956 7.74441 78.5436 9.82441V6.30441H84.4636V29.9524H78.5436V19.3284ZM72.3996 19.5204C74.9596 19.5204 77.5516 17.3124 77.5516 14.5924C77.5516 11.8404 74.9596 9.66441 72.3996 9.66441C69.9676 9.66441 67.9836 11.6164 67.9836 14.3684V14.7844C67.9836 17.5684 69.9676 19.5204 72.3996 19.5204ZM105.686 6.30441V22.8164H99.7984V16.5764C99.5104 19.0084 97.8144 22.9444 93.3664 23.1364C88.7584 23.3284 85.7504 20.0964 85.7504 16.0004V6.30441H91.6384V15.1684C91.6384 17.9204 92.7584 19.3284 94.3264 19.3284C97.3664 19.3284 99.7984 14.3364 99.7984 10.0164V6.30441H105.686ZM106.969 22.8164V0.256405H112.857V22.8164H106.969ZM126.938 22.8164V0.256405H132.826V22.8164H126.938ZM138.35 16.8964C138.222 18.4964 140.686 19.3924 143.31 19.4884C145.422 19.5524 146.734 19.1044 146.766 18.0804C146.798 17.2804 145.966 16.8964 142.414 16.2244C138.862 15.5204 133.966 14.5284 134.094 10.9124C134.19 7.90441 137.678 5.79241 143.182 5.98441C148.782 6.1764 151.534 8.57641 151.694 12.1604H147.374C147.278 10.4644 145.454 9.69641 143.054 9.63241C141.166 9.56841 140.014 9.92041 139.982 10.9764C139.95 11.7764 140.686 12.1604 144.398 12.8964C147.918 13.6004 152.782 14.5284 152.654 18.1124C152.558 21.1524 148.91 23.3284 143.182 23.1364C137.358 22.9124 134.318 20.4484 134.446 16.8964H138.35ZM153.938 22.8164V0.256405H159.826V22.8164H153.938ZM161.094 18.1124C161.094 14.2404 166.31 12.7044 173.99 12.7044H175.782C176.358 8.99241 172.39 7.93641 170.438 10.9124H164.454C166.022 6.72041 169.894 6.11241 173.766 6.14441C180.07 6.2084 182.182 9.08841 182.182 14.4324V22.8164H176.294V18.3684C174.598 21.7284 170.918 23.1684 167.622 23.0404C164.166 22.9444 161.094 21.1524 161.094 18.1124ZM174.854 16.2564C169.83 16.0964 166.982 16.2884 166.982 17.8564C166.982 18.9124 168.358 19.6164 170.118 19.5844C172.102 19.5844 174.534 18.6564 175.942 16.2884L174.854 16.2564ZM183.469 22.8164V6.27241H189.357V11.6164C189.645 9.18441 192.109 5.98441 195.789 5.98441C199.405 5.98441 202.029 7.87241 202.989 10.6564C203.725 8.38441 205.997 5.92041 209.229 5.92041C213.837 5.92041 216.845 8.96041 216.845 13.0564V22.8164H210.957V13.8884C210.957 11.1364 209.837 9.72841 208.269 9.72841C205.325 9.72841 203.405 13.8564 203.405 19.1044V22.8164H197.517V13.9524C197.517 11.2004 196.397 9.79241 194.829 9.79241C192.333 9.79241 189.357 14.2084 189.357 19.1044V22.8164H183.469Z" fill="#161615"/>
</svg>
