<svg width="374" height="52" viewBox="0 0 374 52" fill="none" xmlns="http://www.w3.org/2000/svg">
<path d="M13.7719 39.2773V7.05159H0.000172731V0.441177H37.6795V7.05159H23.9078V39.2773H13.7719ZM27.436 31.1796C27.436 24.5141 36.4151 21.8699 49.6359 21.8699H52.7208C53.7123 15.4799 46.8816 13.662 43.5213 18.7851H33.2201C35.9193 11.5687 42.5848 10.5221 49.2503 10.5771C60.1024 10.6873 63.7381 15.6451 63.7381 24.8446V39.2773H53.6022V31.6203C50.6826 37.4044 44.3476 39.8833 38.6737 39.663C32.7243 39.4977 27.436 36.4128 27.436 31.1796ZM51.1233 27.9846C42.4746 27.7091 37.5719 28.0396 37.5719 30.7389C37.5719 32.5568 39.9407 33.7687 42.9704 33.7136C46.3858 33.7136 50.5724 32.1161 52.9962 28.0396L51.1233 27.9846ZM65.9536 39.2773V10.8526H76.0896V20.8233C76.7507 17.9037 81.0474 10.7975 89.3104 10.7975H91.6792V18.0139H87.2722C79.3397 18.0139 76.0896 23.5776 76.0896 32.3915V39.2773H65.9536ZM94.5897 39.2773V10.7975H104.726V39.2773H94.5897ZM99.6577 9.25506C95.9669 9.25506 93.8736 7.60246 93.8736 4.62777C93.8736 1.65309 95.9669 0.000482281 99.6577 0.000482281C103.404 0.000482281 105.387 1.65309 105.387 4.62777C105.387 7.60246 103.404 9.25506 99.6577 9.25506ZM135.209 33.2729C133.061 36.523 128.268 39.8833 123.311 39.8833C113.395 39.8833 106.785 33.7136 106.785 25.12C106.785 16.6918 113.285 10.3568 122.87 10.3568C128.103 10.3568 133.061 13.3315 135.209 16.9121V10.8526H145.4V51.5617H135.209V33.2729ZM124.633 33.6034C129.04 33.6034 133.502 29.8024 133.502 25.12C133.502 20.3826 129.04 16.6367 124.633 16.6367C120.446 16.6367 117.031 19.997 117.031 24.7344V25.4506C117.031 30.2431 120.446 33.6034 124.633 33.6034ZM181.935 10.8526V39.2773H171.799V28.5354C171.303 32.722 168.383 39.4977 160.726 39.8282C152.794 40.1587 147.615 34.595 147.615 27.5439V10.8526H157.751V26.1116C157.751 30.8491 159.679 33.2729 162.379 33.2729C167.612 33.2729 171.799 24.6794 171.799 17.2426V10.8526H181.935ZM184.143 39.2773V0.441177H194.279V39.2773H184.143ZM218.518 39.2773V0.441177H228.654V39.2773H218.518ZM238.164 29.0863C237.944 31.8406 242.185 33.3831 246.702 33.5483C250.338 33.6585 252.597 32.8873 252.652 31.1245C252.707 29.7473 251.275 29.0863 245.16 27.9295C239.045 26.7176 230.617 25.0099 230.837 18.7851C231.003 13.6069 237.007 9.97119 246.482 10.3017C256.122 10.6322 260.86 14.7637 261.135 20.9335H253.698C253.533 18.0139 250.393 16.6918 246.262 16.5816C243.012 16.4714 241.028 17.0774 240.973 18.8952C240.918 20.2724 242.185 20.9335 248.575 22.2004C254.635 23.4124 263.008 25.0099 262.788 31.1796C262.622 36.4128 256.343 40.1587 246.482 39.8282C236.456 39.4426 231.223 35.2009 231.443 29.0863H238.164ZM264.998 39.2773V0.441177H275.134V39.2773H264.998ZM277.317 31.1796C277.317 24.5141 286.296 21.8699 299.517 21.8699H302.602C303.593 15.4799 296.762 13.662 293.402 18.7851H283.101C285.8 11.5687 292.466 10.5221 299.131 10.5771C309.983 10.6873 313.619 15.6451 313.619 24.8446V39.2773H303.483V31.6203C300.563 37.4044 294.228 39.8833 288.554 39.663C282.605 39.4977 277.317 36.4128 277.317 31.1796ZM301.004 27.9846C292.355 27.7091 287.453 28.0396 287.453 30.7389C287.453 32.5568 289.821 33.7687 292.851 33.7136C296.267 33.7136 300.453 32.1161 302.877 28.0396L301.004 27.9846ZM315.834 39.2773V10.7975H325.97V19.997C326.466 15.8104 330.708 10.3017 337.043 10.3017C343.268 10.3017 347.785 13.5518 349.437 18.3444C350.704 14.4332 354.616 10.1915 360.179 10.1915C368.112 10.1915 373.29 15.4248 373.29 22.4759V39.2773H363.154V23.9081C363.154 19.1707 361.226 16.7469 358.527 16.7469C353.459 16.7469 350.154 23.8531 350.154 32.8873V39.2773H340.018V24.0183C340.018 19.2809 338.09 16.857 335.39 16.857C331.094 16.857 325.97 24.459 325.97 32.8873V39.2773H315.834Z" fill="white"/>
</svg>
