<svg width="64" height="64" viewBox="0 0 64 64" fill="none" xmlns="http://www.w3.org/2000/svg">
<path d="M14.3539 56.5913H49.632C52.5412 56.5913 54.8921 54.2257 54.8921 51.3312V27.089C54.8921 24.1798 52.5265 21.8289 49.632 21.8289H33.2198V19.4045V18.812C35.8058 18.2683 37.76 15.9468 37.76 13.1845C37.76 9.99614 35.174 7.41016 32.0003 7.41016C28.8119 7.41016 26.2259 9.99614 26.2259 13.1845C26.2259 15.9468 28.1801 18.2683 30.7807 18.812V19.4045V21.8289H14.3539C11.4446 21.8289 9.09375 24.1945 9.09375 27.089V51.3459C9.09375 54.2404 11.4446 56.5913 14.3539 56.5913ZM40.4929 29.2783C42.7409 29.2783 44.5629 31.1002 44.5629 33.3335C44.5629 35.5816 42.7409 37.3888 40.4929 37.3888C38.2595 37.3888 36.4376 35.5816 36.4376 33.3335C36.4229 31.1002 38.2448 29.2783 40.4929 29.2783ZM38.9501 46.0024C39.626 46.0024 40.1696 46.546 40.1696 47.2219C40.1696 47.8978 39.626 48.4414 38.9501 48.4414H25.0357C24.3599 48.4414 23.8162 47.8978 23.8162 47.2219C23.8162 46.546 24.3599 46.0024 25.0357 46.0024H38.9501ZM23.5077 29.2783C25.7557 29.2783 27.563 31.1002 27.563 33.3335C27.563 35.5816 25.7557 37.3888 23.5077 37.3888C21.2596 37.3888 19.4524 35.5816 19.4524 33.3335C19.4377 31.1002 21.2449 29.2783 23.5077 29.2783Z" fill="#7D963D"/>
<path d="M57.3311 28.1758V45.7634C60.1227 45.734 62.4002 43.4272 62.4002 40.6208V33.3184C62.4002 30.512 60.1227 28.2199 57.3311 28.1758Z" fill="#5E702E"/>
<path d="M6.65403 45.7634V28.1758C3.84765 28.2199 1.59961 30.512 1.59961 33.3184V40.6061C1.59961 43.4272 3.84765 45.7046 6.65403 45.7634Z" fill="#5E702E"/>
</svg>
