<svg width="64" height="64" viewBox="0 0 64 64" fill="none" xmlns="http://www.w3.org/2000/svg">
<path d="M49.0459 7.91064C49.0459 10.2904 47.1136 12.2254 44.7312 12.2254H19.2699C16.8874 12.2254 14.9551 10.2931 14.9551 7.91064C14.9551 5.52818 16.8874 3.59587 19.2699 3.59587H23.1157C23.4597 1.5574 25.2213 0 27.3565 0H36.6405C38.777 0 40.5387 1.5574 40.8827 3.59587H44.7271C47.1123 3.59452 49.0459 5.52818 49.0459 7.91064Z" fill="#5E702E"/>
<path d="M57.1688 14.3844V57.5294C57.1688 61.1038 54.273 63.9995 50.6987 63.9995H13.3035C9.72915 63.9995 6.83203 61.1038 6.83203 57.5294V14.3844C6.83203 11.2252 9.09893 8.60356 12.0928 8.03516C12.16 11.9481 15.342 15.1033 19.2711 15.1033H44.7324C48.6615 15.1033 51.8422 11.9481 51.9107 8.03516C54.9019 8.60222 57.1688 11.2252 57.1688 14.3844ZM50.3775 25.215C48.6925 23.5299 45.9606 23.5286 44.2756 25.2136L28.3427 41.1451L19.7266 32.5344C18.0429 30.8493 15.3111 30.8506 13.6247 32.5371C11.941 34.2221 11.9423 36.9539 13.6274 38.639L25.2938 50.3C26.1363 51.1399 27.2382 51.5618 28.3441 51.5618C29.4473 51.5618 30.5532 51.1399 31.3944 50.2974L50.3802 31.3169C52.0626 29.6292 52.0626 26.8987 50.3775 25.215Z" fill="#7D963D"/>
</svg>
