<svg width="64" height="64" viewBox="0 0 64 64" fill="none" xmlns="http://www.w3.org/2000/svg">
<g clip-path="url(#clip0_16144_247)">
<path d="M30.1249 4.39453C22.8971 4.80941 16.1191 7.61803 10.709 12.4397L19.076 20.8067C22.2247 18.1853 26.048 16.6012 30.1249 16.2287V4.39453Z" fill="#7D963D"/>
<path d="M16.4232 23.4567L8.05635 15.0898C3.2306 20.4985 0.418477 27.277 0.000976562 34.5065H11.8356C12.2106 30.4288 13.7981 26.6052 16.4232 23.4567Z" fill="#7D963D"/>
<path d="M52.1638 34.5065H63.9984C63.5809 27.277 60.7689 20.4985 55.943 15.0898L47.5762 23.4567C50.2013 26.6051 51.7888 30.4288 52.1638 34.5065Z" fill="#7D963D"/>
<path d="M52.1617 38.2578C51.8989 41.1457 51.0747 43.5544 50.1 45.4866C51.0509 46.9529 51.8436 48.1922 52.3674 49.0152C53.7936 51.2567 53.4779 54.1339 51.5994 56.0126C51.1432 56.4687 50.6222 56.8362 50.0576 57.1078L52.0062 59.0566C52.373 59.4233 52.8537 59.6067 53.3344 59.6067C53.8151 59.6067 54.2957 59.4233 54.6624 59.0566C60.2779 53.4417 63.5522 46.1148 64.0004 38.2578H52.1617Z" fill="#7D963D"/>
<path d="M11.8387 38.2578H0C0.448125 46.1148 3.7225 53.4417 9.33788 59.0567C9.70463 59.4234 10.1853 59.6068 10.6659 59.6068C11.1465 59.6068 11.6273 59.4233 11.994 59.0567L17.683 53.3673C18.4164 52.6338 18.4164 51.4446 17.683 50.7111C16.1984 49.2264 12.4587 45.0699 11.8387 38.2578Z" fill="#7D963D"/>
<path d="M53.2909 12.4397C47.8807 7.61791 41.1027 4.80941 33.875 4.39453V16.2287C37.9517 16.6012 41.7751 18.1853 44.9239 20.8067L53.2909 12.4397Z" fill="#7D963D"/>
<path d="M36.1662 32.2482C33.869 29.9511 30.1313 29.9511 27.8342 32.2482C25.537 34.5454 25.537 38.2831 27.8342 40.5802C30.7362 43.4822 44.998 52.5885 46.6148 53.6172C47.3562 54.0891 48.3258 53.9826 48.9473 53.3612C49.5687 52.7399 49.6752 51.7702 49.2033 51.0287C48.1744 49.4121 39.0682 35.1501 36.1662 32.2482Z" fill="#5E702E"/>
</g>
<defs>
<clipPath id="clip0_16144_247">
<rect width="64" height="64" fill="white"/>
</clipPath>
</defs>
</svg>
