<svg width="64" height="64" viewBox="0 0 64 64" fill="none" xmlns="http://www.w3.org/2000/svg">
<g clip-path="url(#clip0_16144_213)">
<path d="M63.7903 19.2449L50.5158 0.45316C50.3078 0.167219 49.9756 -0.00195312 49.622 -0.00195312C49.2684 -0.00195312 48.9362 0.167219 48.7282 0.45316L35.5199 19.2449C35.2821 19.5779 35.2511 20.0161 35.4397 20.3793C35.6282 20.7425 36.0045 20.9692 36.4137 20.9663H43.0344V24.2766C43.0346 28.6772 41.1363 32.8638 37.8261 35.7635L35.1117 38.1359C33.992 39.1192 32.9515 40.1891 31.9999 41.3359C31.0484 40.1891 30.0079 39.1192 28.8882 38.1359L26.1737 35.7635C22.8636 32.8638 20.9653 28.6772 20.9655 24.2766V20.9663H27.5862C27.9954 20.9692 28.3717 20.7425 28.5602 20.3793C28.7488 20.0161 28.7178 19.5779 28.4799 19.2449L15.2055 0.45316C14.9975 0.167219 14.6652 -0.00195312 14.3117 -0.00195312C13.9581 -0.00195312 13.6259 0.167219 13.4179 0.45316L0.209602 19.2449C-0.0282381 19.5779 -0.0592532 20.0161 0.129319 20.3793C0.31789 20.7425 0.694193 20.9692 1.1034 20.9663H7.72409V24.2766C7.72225 32.496 11.2701 40.3158 17.4565 45.7276L20.171 48.1001C23.4811 50.9997 25.3794 55.1864 25.3793 59.587V62.8973C25.3793 63.5067 25.8733 64.0007 26.4827 64.0007H37.5172C38.1266 64.0007 38.6206 63.5067 38.6206 62.8973V59.587C38.6205 55.1864 40.5188 50.9997 43.8289 48.1001L46.5434 45.7276C52.7298 40.3158 56.2776 32.496 56.2758 24.2766V20.9663H62.8965C63.3057 20.9692 63.682 20.7425 63.8706 20.3793C64.0592 20.0161 64.0281 19.5779 63.7903 19.2449Z" fill="#7D963D"/>
<path d="M38.6206 59.587V62.8973C38.6206 63.5067 38.1266 64.0007 37.5172 64.0007H26.4827C25.8733 64.0007 25.3793 63.5067 25.3793 62.8973V59.587C25.3794 55.1864 23.4811 50.9997 20.171 48.1001L17.4565 45.7276C11.2701 40.3158 7.72225 32.496 7.72409 24.2766V20.9663H1.1034C0.694193 20.9692 0.31789 20.7425 0.129319 20.3793C-0.0592532 20.0161 -0.0282381 19.5779 0.209602 19.2449L13.4179 0.45316C13.6259 0.167219 13.9581 -0.00195312 14.3117 -0.00195312C14.6652 -0.00195312 14.9975 0.167219 15.2055 0.45316L28.4799 19.2449C28.7178 19.5779 28.7488 20.0161 28.5602 20.3793C28.3717 20.7425 27.9954 20.9692 27.5862 20.9663H20.9655V24.2766C20.9653 28.6772 22.8636 32.8638 26.1737 35.7635L28.8882 38.1359C35.0563 43.5613 38.6002 51.3724 38.6206 59.587Z" fill="#7D963D"/>
<path d="M62.8966 20.9663H56.2759V24.2766C56.2777 32.496 52.7298 40.3158 46.5434 45.7276L43.829 48.1001C40.5189 50.9997 38.6206 55.1864 38.6207 59.587C38.6261 52.9145 36.2822 46.4531 32 41.3359C32.9515 40.1891 33.992 39.1192 35.1117 38.1359L37.8262 35.7635C41.1363 32.8638 43.0346 28.6772 43.0345 24.2766V20.9663H36.4138C36.0046 20.9692 35.6283 20.7425 35.4397 20.3793C35.2511 20.0161 35.2822 19.5779 35.52 19.2449L48.7283 0.45316C48.9363 0.167219 49.2685 -0.00195312 49.6221 -0.00195312C49.9756 -0.00195312 50.3079 0.167219 50.5159 0.45316L63.7903 19.2449C64.0282 19.5779 64.0592 20.0161 63.8706 20.3793C63.6821 20.7425 63.3058 20.9692 62.8966 20.9663Z" fill="#5E702E"/>
</g>
<defs>
<clipPath id="clip0_16144_213">
<rect width="64" height="64" fill="white"/>
</clipPath>
</defs>
</svg>
