<svg width="64" height="64" viewBox="0 0 64 64" fill="none" xmlns="http://www.w3.org/2000/svg">
<path fill-rule="evenodd" clip-rule="evenodd" d="M3.33301 16.6673H60.6663V13.334C60.6663 7.81132 56.189 3.33398 50.6663 3.33398H13.333C7.81034 3.33398 3.33301 7.81132 3.33301 13.334V16.6673ZM33.9997 8.66732C35.1037 8.66732 35.9997 9.56332 35.9997 10.6673C35.9997 11.7713 35.1037 12.6673 33.9997 12.6673C32.8957 12.6673 31.9997 11.7713 31.9997 10.6673C31.9997 9.56332 32.8957 8.66732 33.9997 8.66732ZM41.333 8.66732C42.437 8.66732 43.333 9.56332 43.333 10.6673C43.333 11.7713 42.437 12.6673 41.333 12.6673C40.229 12.6673 39.333 11.7713 39.333 10.6673C39.333 9.56332 40.229 8.66732 41.333 8.66732ZM48.6663 8.66732C49.7703 8.66732 50.6663 9.56332 50.6663 10.6673C50.6663 11.7713 49.7703 12.6673 48.6663 12.6673C47.5623 12.6673 46.6663 11.7713 46.6663 10.6673C46.6663 9.56332 47.5623 8.66732 48.6663 8.66732Z" fill="#5E702E"/>
<path fill-rule="evenodd" clip-rule="evenodd" d="M60.6663 20.668H3.33301V50.668C3.33301 56.1906 7.81034 60.668 13.333 60.668H50.6663C56.189 60.668 60.6663 56.1906 60.6663 50.668V20.668ZM33.301 29.7693L26.901 48.9693C26.5543 50.0173 27.1197 51.1506 28.1677 51.5C29.2157 51.8466 30.349 51.2813 30.6983 50.2333L37.0983 31.0333C37.445 29.9853 36.8797 28.852 35.8317 28.5026C34.7837 28.156 33.6503 28.7213 33.301 29.7693ZM38.853 35.0146L43.837 40.0013L38.853 44.988C38.0717 45.7666 38.0717 47.036 38.853 47.8146C39.6317 48.596 40.901 48.596 41.6797 47.8146L48.0797 41.4146C48.861 40.6333 48.861 39.3693 48.0797 38.588L41.6797 32.188C40.901 31.4066 39.6317 31.4066 38.853 32.188C38.0717 32.9666 38.0717 34.236 38.853 35.0146ZM22.3197 32.188L15.9197 38.588C15.1383 39.3693 15.1383 40.6333 15.9197 41.4146L22.3197 47.8146C23.0983 48.596 24.3677 48.596 25.1463 47.8146C25.9277 47.036 25.9277 45.7666 25.1463 44.988L20.1623 40.0013L25.1463 35.0146C25.9277 34.236 25.9277 32.9666 25.1463 32.188C24.3677 31.4066 23.0983 31.4066 22.3197 32.188Z" fill="#7D963D"/>
</svg>
