<svg width="64" height="64" viewBox="0 0 64 64" fill="none" xmlns="http://www.w3.org/2000/svg">
<path d="M3.44776 33.8862L14.1144 44.5529C14.3604 44.8076 14.6547 45.0107 14.98 45.1505C15.3054 45.2902 15.6553 45.3638 16.0094 45.3669C16.3634 45.3699 16.7146 45.3025 17.0423 45.1684C17.37 45.0343 17.6678 44.8363 17.9181 44.5859C18.1685 44.3355 18.3665 44.0378 18.5006 43.7101C18.6347 43.3824 18.7022 43.0312 18.6991 42.6771C18.696 42.3231 18.6225 41.9731 18.4827 41.6478C18.3429 41.3224 18.1398 41.0282 17.8851 40.7822L9.10376 32.0009L17.8851 23.2195C18.1398 22.9735 18.3429 22.6793 18.4827 22.3539C18.6225 22.0286 18.696 21.6787 18.6991 21.3246C18.7022 20.9705 18.6347 20.6194 18.5006 20.2917C18.3665 19.9639 18.1685 19.6662 17.9181 19.4158C17.6678 19.1654 17.37 18.9674 17.0423 18.8333C16.7146 18.6993 16.3634 18.6318 16.0094 18.6349C15.6553 18.6379 15.3054 18.7115 14.98 18.8513C14.6547 18.991 14.3604 19.1942 14.1144 19.4489L3.44776 30.1155C2.94783 30.6156 2.66699 31.2938 2.66699 32.0009C2.66699 32.708 2.94783 33.3861 3.44776 33.8862Z" fill="#7D963D"/>
<path d="M49.8856 19.4489C49.6396 19.1942 49.3453 18.991 49.02 18.8513C48.6946 18.7115 48.3447 18.6379 47.9906 18.6349C47.6365 18.6318 47.2854 18.6993 46.9577 18.8333C46.63 18.9674 46.3322 19.1654 46.0818 19.4158C45.8315 19.6662 45.6334 19.9639 45.4994 20.2917C45.3653 20.6194 45.2978 20.9705 45.3009 21.3246C45.304 21.6787 45.3775 22.0286 45.5173 22.3539C45.657 22.6793 45.8602 22.9735 46.1149 23.2195L54.8962 32.0009L46.1149 40.7822C45.8602 41.0282 45.657 41.3224 45.5173 41.6478C45.3775 41.9731 45.304 42.3231 45.3009 42.6771C45.2978 43.0312 45.3653 43.3824 45.4994 43.7101C45.6334 44.0378 45.8315 44.3355 46.0818 44.5859C46.3322 44.8363 46.63 45.0343 46.9577 45.1684C47.2854 45.3025 47.6365 45.3699 47.9906 45.3669C48.3447 45.3638 48.6946 45.2902 49.02 45.1505C49.3453 45.0107 49.6396 44.8076 49.8856 44.5529L60.5522 33.8862C61.0521 33.3861 61.333 32.708 61.333 32.0009C61.333 31.2938 61.0521 30.6156 60.5522 30.1155L49.8856 19.4489Z" fill="#7D963D"/>
<path d="M34.7702 12.6024L24.1036 49.9357C23.9094 50.6154 23.993 51.3443 24.336 51.9623C24.6791 52.5804 25.2534 53.0369 25.9329 53.2317C26.1718 53.2977 26.4184 53.3318 26.6662 53.333C27.2457 53.3326 27.8093 53.1434 28.2717 52.7941C28.7341 52.4448 29.0701 51.9544 29.2289 51.397L39.8956 14.0637C40.0068 13.7228 40.048 13.3629 40.0169 13.0057C39.9858 12.6484 39.883 12.3011 39.7145 11.9845C39.5461 11.6679 39.3156 11.3886 39.0367 11.1631C38.7578 10.9377 38.4363 10.7708 38.0915 10.6725C37.7466 10.5742 37.3855 10.5464 37.0296 10.5909C36.6738 10.6354 36.3306 10.7511 36.0205 10.9313C35.7105 11.1115 35.44 11.3523 35.2251 11.6394C35.0103 11.9266 34.8556 12.2541 34.7702 12.6024Z" fill="#5E702E"/>
</svg>
