<svg width="55" height="60" viewBox="0 0 55 60" fill="none" xmlns="http://www.w3.org/2000/svg">
<circle cx="27.4472" cy="30.0009" r="18.5106" fill="white"/>
<path d="M27.6982 0.0140243C29.0392 0.0737719 30.3009 0.335222 31.3523 0.933618L36.013 3.60224C37.5634 4.49621 39.1123 5.39505 40.6578 6.29892C42.2033 7.20275 43.7481 8.11037 45.2887 9.02164L49.9016 11.7684L49.9076 11.7704C50.9424 12.3941 51.7947 13.3675 52.513 14.5112L52.818 15.022C53.591 16.3857 54.1186 17.7952 54.1337 19.1812C54.1729 22.7922 54.1935 26.4031 54.1935 30.014C54.1935 33.6261 54.1699 37.2387 54.1258 40.8508V40.8588C54.1031 42.2405 53.5756 43.6451 52.8021 45.004L52.7981 45.01C52.0192 46.3684 51.0764 47.5388 49.8936 48.2516L49.8876 48.2536C46.816 50.0912 43.732 51.9153 40.6359 53.7231H40.6339C37.5416 55.5266 34.4383 57.3105 31.3263 59.0744V59.0764C30.1196 59.7591 28.6403 60 27.0822 60C25.5247 59.9999 24.0464 59.7587 22.8401 59.0764L22.8361 59.0744C19.7241 57.3055 16.6209 55.5156 13.5286 53.7071C10.437 51.8991 7.35782 50.0723 4.29077 48.2296C3.09944 47.5156 2.15384 46.3443 1.3783 44.982C0.603855 43.6214 0.0754177 42.2156 0.0526341 40.8308V40.8188C0.0134284 37.2067 -0.00409507 33.5971 0.000803664 29.99C0.000812964 26.3785 0.0244826 22.7666 0.068582 19.1552C0.0845174 17.762 0.615959 16.3512 1.39624 14.99C2.17156 13.6293 3.11848 12.4573 4.31469 11.7484C7.38416 9.90722 10.4634 8.08449 13.5525 6.28289H13.5545C16.6505 4.48006 19.7552 2.69378 22.866 0.925604L22.868 0.923601C24.0746 0.240742 25.554 8.27543e-05 27.1121 0H27.1201L27.6982 0.0140243ZM27.2178 15.8956C26.5759 15.8704 25.9665 16.0488 25.4316 16.3844C25.3247 16.4515 25.2213 16.5256 25.1206 16.6048C24.5171 17.0801 24.0314 17.7682 23.7372 18.5882C23.3412 19.7002 22.7976 21.1264 22.1085 22.8656C22.0442 23.0235 21.9367 23.1608 21.7995 23.2603C21.6622 23.3596 21.4995 23.4178 21.331 23.4286C20.4312 23.483 18.8146 23.5982 16.4829 23.7712C14.2346 23.9346 13.1259 25.1102 13.1598 27.2993C13.1697 28.1986 13.5472 28.9462 14.2901 29.5392C15.1868 30.26 15.9632 30.8939 16.6204 31.4385C17.3748 32.0641 17.9719 32.5724 18.4106 32.9651C18.4335 32.9856 18.4563 33.0054 18.4784 33.0252C18.5668 33.1055 18.6317 33.2092 18.6677 33.3238C18.7035 33.4379 18.7098 33.5596 18.6837 33.6764C18.0122 36.6241 16.299 40.5001 18.8472 42.2352C19.0986 42.4066 19.3906 42.5573 19.7303 42.684C19.784 42.704 19.8376 42.7273 19.8937 42.7461C20.0553 42.8003 20.2329 42.8224 20.422 42.8222C22.2495 42.8216 25.226 40.4668 26.7154 39.3642C26.8301 39.2788 26.9697 39.232 27.1121 39.23C27.1966 39.2292 27.2806 39.2461 27.3593 39.2761C27.414 39.297 27.4666 39.3237 27.5148 39.3582C28.7126 40.2084 30.1021 41.1459 31.6812 42.1691C33.5387 43.3699 35.084 43.0772 36.316 41.2936C37.7407 39.2401 36.3491 37.6586 35.1239 37.6212C35.0649 37.6194 35.0064 37.6218 34.9485 37.6272C34.8913 37.6326 34.8345 37.6405 34.779 37.6533C34.2791 37.7675 33.8614 38.1847 33.7624 38.9876C33.7561 39.041 33.737 39.0937 33.7066 39.1378C33.6759 39.1816 33.6344 39.218 33.5869 39.242C33.5391 39.266 33.4848 39.2759 33.4315 39.2741C33.3964 39.2728 33.3626 39.2643 33.3298 39.252C33.3132 39.2458 33.2952 39.2411 33.28 39.232L27.8457 36.0645C27.8179 36.0483 27.7888 36.0347 27.76 36.0204C27.6942 35.9877 27.6263 35.9606 27.5567 35.9383C27.416 35.8935 27.2687 35.8683 27.1201 35.8682H27.1181C26.8637 35.8683 26.6128 35.9361 26.3925 36.0645L20.9343 39.246C20.8995 39.2657 20.8587 39.2742 20.8187 39.2721C20.7793 39.2694 20.7405 39.2572 20.7091 39.234C20.6771 39.2102 20.6523 39.177 20.6393 39.1398C20.6265 39.1027 20.6249 39.0617 20.6353 39.0236L22.0507 32.9651C22.116 32.688 22.1027 32.3977 22.0108 32.1277C21.9186 31.8574 21.7516 31.6177 21.5304 31.4385L16.463 27.3454C16.4236 27.3128 16.394 27.2684 16.3792 27.2192C16.3645 27.1699 16.3644 27.1161 16.3792 27.0669C16.3942 27.0182 16.4239 26.975 16.463 26.9427C16.5024 26.9104 16.5519 26.8893 16.6025 26.8846L23.4082 26.4398C23.6055 26.4264 23.7959 26.3571 23.9564 26.2395C24.1172 26.1215 24.2422 25.9592 24.3173 25.7727L26.7752 19.4477C26.7974 19.3899 26.8364 19.3402 26.8869 19.3055C26.9379 19.2708 27.0001 19.2527 27.0623 19.2534C27.0877 19.2537 27.1136 19.2571 27.138 19.2634C27.1727 19.2732 27.2056 19.2886 27.2357 19.3095C27.2854 19.344 27.3252 19.3921 27.3494 19.4477C27.3505 19.4504 27.3522 19.4529 27.3533 19.4557L29.6638 25.4922C29.7424 25.6978 29.8664 25.8792 30.0186 26.0311C30.144 26.1568 30.288 26.2639 30.4512 26.3397C30.4753 26.3508 30.5024 26.3559 30.527 26.3657C30.6864 26.4299 30.8524 26.4706 31.0213 26.4779V26.4759C31.2171 26.4844 31.4141 26.4563 31.6014 26.3877L31.6732 26.3657C32.0276 26.2441 32.3202 25.9854 32.4865 25.6465C32.6529 25.3074 32.6811 24.9155 32.5623 24.5566C32.2884 23.7458 31.6342 21.9715 30.6027 19.2333C30.3316 18.5161 30.0548 17.9282 29.7774 17.4663C29.7087 17.352 29.6392 17.2464 29.5701 17.1477C29.3145 16.7822 29.0595 16.5211 28.7986 16.3704C28.6181 16.2676 28.4362 16.1864 28.2564 16.1179C28.0682 16.0461 27.8818 15.9919 27.6962 15.9557C27.535 15.9242 27.3757 15.9017 27.2178 15.8956ZM34.5717 23.647C34.4091 23.6471 34.2491 23.6877 34.1072 23.7652C34.0601 23.791 34.0144 23.8217 33.9717 23.8554C33.9293 23.8888 33.8902 23.9259 33.8541 23.9655C33.8176 24.0057 33.7838 24.0483 33.7544 24.0938C33.6957 24.1845 33.6513 24.2859 33.6248 24.3923L32.8254 27.678C32.7838 27.853 32.6955 28.0149 32.5703 28.1428C32.445 28.2703 32.2862 28.3615 32.1138 28.4052L28.8644 29.2206C28.6541 29.2743 28.4676 29.3983 28.3341 29.5713C28.2336 29.7018 28.1674 29.8547 28.1408 30.016C28.1319 30.0694 28.1268 30.1237 28.1268 30.1783C28.127 30.3977 28.2008 30.6103 28.3341 30.7834C28.4676 30.9563 28.654 31.0803 28.8644 31.134L32.1138 31.9434C32.2867 31.9853 32.4457 32.0736 32.5723 32.1998C32.6989 32.3266 32.79 32.4878 32.8334 32.6626L33.6388 35.9463C33.6916 36.1593 33.8145 36.3501 33.9856 36.4852C34.1568 36.6201 34.3687 36.6934 34.5857 36.6936C34.8027 36.6936 35.0145 36.62 35.1857 36.4852C35.3571 36.3501 35.4796 36.1594 35.5326 35.9463L36.332 32.6626C36.3735 32.4875 36.4619 32.3259 36.5871 32.1978C36.7123 32.0701 36.8711 31.9792 37.0436 31.9354L40.291 31.1199C40.5017 31.0665 40.6896 30.9424 40.8233 30.7693C40.957 30.596 41.0306 30.3821 41.0306 30.1623C41.0305 29.9974 40.9902 29.8352 40.913 29.6915C40.8873 29.6436 40.8567 29.5985 40.8233 29.5552C40.6896 29.3821 40.5017 29.2601 40.291 29.2066L37.0436 28.3972C36.8705 28.3551 36.7097 28.2654 36.5831 28.1388C36.4569 28.0122 36.3673 27.8523 36.324 27.678L35.5166 24.3923C35.4901 24.2859 35.4474 24.1846 35.3891 24.0938C35.3601 24.0485 35.3274 24.0055 35.2914 23.9655C35.2551 23.9255 35.2145 23.8891 35.1718 23.8554C35.1288 23.8215 35.0837 23.7911 35.0362 23.7652C34.8945 23.688 34.7342 23.6471 34.5717 23.647Z" fill="#F66DBC"/>
</svg>
