<svg width="69" height="27" viewBox="0 0 69 27" fill="none" xmlns="http://www.w3.org/2000/svg">
<path d="M10.7449 6.83887C11.3039 8.68776 12.2786 10.8773 13.5275 12.7917C14.2487 10.1313 16.1387 8.43101 18.6346 8.3158L18.8784 8.30902C20.338 8.30681 21.7397 8.87944 22.7767 9.90225C23.8139 10.9254 24.4026 12.3159 24.4141 13.7696C24.4299 16.9247 21.9621 19.404 18.9317 19.4187C17.4796 19.4257 16.2436 19.0207 15.1388 18.3393L13.9255 24.1747L11.1021 24.1871L12.7859 16.1555C12.0226 15.1296 11.3285 13.9669 10.7732 12.873L10.7789 14.1083C10.7925 17.1254 8.39353 19.5363 5.4314 19.5508C2.46908 19.5653 0.0485631 17.1747 0.0340171 14.158L0 6.88855L2.75539 6.87613L2.79054 14.1456C2.79405 14.8368 3.07303 15.4986 3.56613 15.985C4.05921 16.4713 4.7261 16.7423 5.42006 16.7393C6.11411 16.7357 6.77874 16.4579 7.26719 15.9669C7.75542 15.4759 8.02767 14.8117 8.02464 14.1208L7.99063 6.85129L10.7449 6.83887ZM18.9612 11.0585C16.8944 11.0673 16.2857 13.0593 16.0833 14.2269V14.2901L15.8134 15.3877C16.7121 16.1383 17.8164 16.6122 18.9181 16.6071C20.365 16.6002 21.667 15.3596 21.729 13.782C21.7213 13.0565 21.4264 12.3634 20.9081 11.8534C20.3897 11.3435 19.6898 11.0573 18.9612 11.0585Z" fill="#15A800"/>
<path d="M44.6376 8.1897C47.6682 8.17529 50.1599 10.6333 50.1745 13.7191C50.189 16.8051 47.7203 19.2856 44.6909 19.2994C41.6618 19.3131 39.1693 16.8569 39.1552 13.77C39.1413 10.6828 41.6094 8.20305 44.6388 8.18857L44.6376 8.1897ZM36.0109 19.0724L33.6694 19.0826L31.7758 11.7533L29.9513 19.0995L27.6087 19.1108L24.4609 8.6312L26.8025 8.6199L28.9024 15.8126L30.5908 8.60297L32.8632 8.58603L34.6876 15.7798L36.5824 8.56909L38.9942 8.5578L36.0109 19.0724ZM57.8782 10.7992L56.9122 10.8048C55.328 10.8124 54.0937 12.1213 54.1012 13.6988L54.1262 18.9799L51.7155 18.9911L51.6667 8.49683L54.0774 8.48553L54.0865 10.1318C54.0865 10.1318 55.1107 8.48143 57.1775 8.47199L57.8669 8.4686L57.8782 10.7992ZM61.8038 11.6731L62.1485 11.672C63.8698 11.6657 65.3105 10.2191 65.3019 8.43585L67.7126 8.42343C67.7221 10.4808 66.5592 12.2707 64.9119 13.2381L68.9338 18.911L66.1104 18.9234L62.7132 14.3447C62.6427 14.1398 62.3672 14.0037 62.0918 14.0048L61.8163 14.006L61.839 18.9437L59.4294 18.955L59.3557 3.38629L61.7664 3.375L61.8038 11.6731ZM44.649 10.588C43.7904 10.5976 42.968 10.9346 42.3642 11.5421C41.7603 12.1498 41.4182 12.9713 41.4276 13.8264C41.437 14.6816 41.7755 15.5014 42.3857 16.1028C42.996 16.7042 43.8219 17.0405 44.6807 17.0355C46.4034 17.0265 47.911 15.512 47.9021 13.7959C47.8926 12.9407 47.5543 12.121 46.944 11.5196C46.3337 10.9182 45.5077 10.5786 44.649 10.588Z" fill="#433F34"/>
</svg>
