<svg width="56" height="56" viewBox="0 0 56 56" fill="none" xmlns="http://www.w3.org/2000/svg">
<path d="M0 12C0 5.37258 5.37258 0 12 0H44C50.6274 0 56 5.37258 56 12V44C56 50.6274 50.6274 56 44 56H12C5.37258 56 0 50.6274 0 44V12Z" fill="#ECEFE2"/>
<path d="M36.9375 35.584C36.9375 35.1353 36.5737 34.7715 36.125 34.7715H35.3125V36.3965H36.125C36.5737 36.3965 36.9375 36.0327 36.9375 35.584ZM38.5625 35.584C38.5625 36.9301 37.4712 38.0215 36.125 38.0215H35.3125V38.834C35.3125 39.2827 34.9487 39.6465 34.5 39.6465C34.0513 39.6465 33.6875 39.2827 33.6875 38.834V38.0215H31.25C30.8013 38.0215 30.4375 37.6577 30.4375 37.209C30.4375 36.7603 30.8013 36.3965 31.25 36.3965H33.6875V34.7715H32.875C31.5289 34.7715 30.4375 33.6801 30.4375 32.334C30.4375 30.9878 31.5289 29.8965 32.875 29.8965H33.6875V29.084C33.6875 28.6353 34.0513 28.2715 34.5 28.2715C34.9487 28.2715 35.3125 28.6353 35.3125 29.084V29.8965H37.75C38.1987 29.8965 38.5625 30.2603 38.5625 30.709C38.5625 31.1577 38.1987 31.5215 37.75 31.5215H35.3125V33.1465H36.125C37.4712 33.1465 38.5625 34.2378 38.5625 35.584ZM32.0625 32.334C32.0625 32.7827 32.4263 33.1465 32.875 33.1465H33.6875V31.5215H32.875C32.4263 31.5215 32.0625 31.8853 32.0625 32.334Z" fill="#7D963D"/>
<path d="M29.241 36.3952C29.4568 35.8617 29.8785 35.4337 30.4079 35.2102C29.5976 34.5148 29.0833 33.4843 29.0833 32.3327C29.0833 30.8996 29.8792 29.6542 31.0522 29.0097C30.0922 28.2465 28.9616 27.6905 27.727 27.4048C29.937 26.6245 31.5208 24.5181 31.5208 22.041C31.5208 18.8999 28.9745 16.3535 25.8333 16.3535C22.6922 16.3535 20.1458 18.8999 20.1458 22.041C20.1458 24.5177 21.7291 26.6243 23.9386 27.4048C20.2146 28.2641 17.4375 31.5976 17.4375 35.5827C17.4375 36.0314 17.8013 36.3952 18.25 36.3952H29.241Z" fill="#7D963D"/>
</svg>
