<svg width="73" height="22" viewBox="0 0 73 22" fill="none" xmlns="http://www.w3.org/2000/svg">
<path d="M11.2959 3.66211C11.8836 5.6163 12.9079 7.93062 14.2207 9.9541C14.9789 7.14216 16.9661 5.34544 19.5898 5.22363L19.8467 5.21582C21.381 5.21361 22.8542 5.81938 23.9443 6.90039C25.0346 7.98181 25.6539 9.45175 25.666 10.9883C25.6825 14.323 23.088 16.9434 19.9023 16.959C18.3759 16.9663 17.0765 16.5386 15.915 15.8184L14.6396 21.9863L11.6709 21.999L13.4414 13.5098C12.639 12.4254 11.9089 11.1962 11.3252 10.04L11.3311 11.3457C11.3454 14.5347 8.82389 17.0832 5.70996 17.0986C2.59577 17.1139 0.0514245 14.5871 0.0361328 11.3984L0 3.71484L2.89648 3.70117L2.93359 11.3857C2.93738 12.1162 3.23072 12.816 3.74902 13.3301C4.26736 13.8439 4.96882 14.1301 5.69824 14.127C6.42773 14.1231 7.12623 13.8294 7.63965 13.3105C8.15285 12.7916 8.43964 12.0897 8.43652 11.3594L8.40039 3.6748L11.2959 3.66211ZM46.9258 5.08887C50.1116 5.07364 52.7316 7.67193 52.7471 10.9336C52.7624 14.1953 50.1669 16.8171 46.9824 16.832C43.798 16.8465 41.177 14.2502 41.1621 10.9873C41.1476 7.72436 43.7424 5.1034 46.9268 5.08789L46.9258 5.08887ZM37.8564 16.5928L35.3955 16.6035L33.4043 8.85547L31.4863 16.6211L29.0244 16.6328L25.7148 5.55566L28.1768 5.54395L30.3838 13.1465L32.1592 5.52637L34.5479 5.50781L36.4658 13.1123L38.458 5.49023L40.9932 5.47852L37.8564 16.5928ZM60.8457 7.84766L59.8301 7.85352C58.1648 7.8615 56.8673 9.24478 56.875 10.9121L56.9004 16.4941L54.3662 16.5068L54.3154 5.41406L56.8496 5.40234L56.8594 7.1416C56.8786 7.11078 57.9554 5.39772 60.1084 5.3877L60.833 5.38379L60.8457 7.84766ZM64.9717 8.77148L65.335 8.76953C67.1442 8.76263 68.6583 7.23431 68.6494 5.34961L71.1836 5.33594C71.1936 7.51062 69.9711 9.40325 68.2393 10.4258L72.4678 16.4219L69.499 16.4346L65.9277 11.5947C65.8534 11.3785 65.5645 11.2343 65.2754 11.2354L64.9854 11.2373L65.0088 16.4561L62.4756 16.4678L62.3984 0.0117188L64.9326 0L64.9717 8.77148ZM46.9375 7.62402C46.035 7.63423 45.1708 7.99075 44.5361 8.63281C43.9014 9.275 43.542 10.1432 43.5518 11.0469C43.5617 11.9507 43.9172 12.8174 44.5586 13.4531C45.2002 14.0889 46.0688 14.4448 46.9717 14.4395C48.7825 14.4297 50.3667 12.8284 50.3574 11.0146C50.3473 10.1109 49.9919 9.24497 49.3506 8.60938C48.709 7.97377 47.8403 7.61404 46.9375 7.62402ZM19.9336 8.12207C17.7608 8.13139 17.121 10.2375 16.9082 11.4717V11.5381L16.624 12.6982C17.5687 13.4916 18.7296 13.9926 19.8877 13.9873C21.4089 13.9799 22.7776 12.6685 22.8428 11.001C22.8346 10.2341 22.5243 9.50188 21.9795 8.96289C21.4346 8.42397 20.6995 8.12094 19.9336 8.12207Z" fill="white"/>
</svg>
