<svg width="96" height="96" viewBox="0 0 96 96" fill="none" xmlns="http://www.w3.org/2000/svg">
<path d="M48 94.0591C73.8884 94.0591 94.8751 73.4374 94.8751 47.9993C94.8751 22.5611 73.8884 1.93945 48 1.93945C22.1117 1.93945 1.125 22.5611 1.125 47.9993C1.125 73.4374 22.1117 94.0591 48 94.0591Z" fill="#00AB00"/>
<path d="M64.784 34.0703C56.8775 34.0703 52.4514 39.223 51.1842 44.5278C49.7484 41.8248 48.6839 38.2094 47.8561 34.8475H36.926V48.4471C36.926 53.3802 34.679 57.0293 30.2866 57.0293C25.894 57.0293 23.3769 53.3802 23.3769 48.4471L23.4275 34.8475H17.126V48.4471C17.126 52.4172 18.41 56.0157 20.7582 58.5835C23.174 61.2359 26.4684 62.6211 30.2864 62.6211C37.8886 62.6211 43.1933 56.7927 43.1933 48.4471V39.3076C43.9874 42.3147 45.8795 48.0925 49.4949 53.1608L46.1161 72.403H52.5188L54.7488 58.7695C55.4753 59.3778 56.2525 59.9183 57.0802 60.4082C59.2257 61.7598 61.6754 62.5201 64.2095 62.6044C64.2095 62.6044 64.5982 62.6213 64.8008 62.6213C72.6397 62.6213 78.8735 56.5564 78.8735 48.3629C78.8735 40.1691 72.6228 34.0705 64.784 34.0705M64.784 57.0126C59.9352 57.0126 56.7254 53.2621 55.8301 51.8091C56.9789 42.6188 60.3408 39.7131 64.784 39.7131C69.1763 39.7131 72.5888 43.2271 72.5888 48.3629C72.5888 53.4985 69.1763 57.0126 64.784 57.0126Z" fill="white"/>
</svg>
