<svg width="75" height="24" viewBox="0 0 75 24" fill="none" xmlns="http://www.w3.org/2000/svg">
<g clip-path="url(#clip0_16186_3631)">
<path d="M11.6903 4.6543C12.2986 6.67687 13.359 9.07211 14.7178 11.1664C15.5024 8.25607 17.5588 6.396 20.2743 6.26996L20.5395 6.26255C22.1276 6.26014 23.6526 6.88655 24.7809 8.00545C25.9093 9.12466 26.5498 10.6458 26.5623 12.2361C26.5796 15.6875 23.8946 18.3998 20.5975 18.4159C19.0177 18.4235 17.6729 17.9804 16.4709 17.235L15.1508 23.6186L12.079 23.6322L13.911 14.8461C13.0805 13.7239 12.3253 12.4519 11.7212 11.2553L11.7274 12.6066C11.7422 15.9071 9.13209 18.5445 5.90932 18.5604C2.68634 18.5762 0.0528363 15.961 0.0370104 12.661L0 4.70865L2.99784 4.69506L3.03608 12.6474C3.03991 13.4035 3.34343 14.1275 3.87992 14.6596C4.41639 15.1915 5.14196 15.488 5.89699 15.4847C6.6521 15.4808 7.37522 15.177 7.90665 14.6398C8.43784 14.1027 8.73404 13.3761 8.73075 12.6202L8.69374 4.66788L11.6903 4.6543ZM20.6296 9.27031C18.3809 9.27996 17.7187 11.459 17.4985 12.7363V12.8055L17.2049 14.0061C18.1826 14.8273 19.3841 15.3457 20.5827 15.3402C22.157 15.3326 23.5736 13.9754 23.641 12.2497C23.6326 11.456 23.3117 10.6978 22.7478 10.1399C22.1838 9.58203 21.4224 9.26904 20.6296 9.27031Z" fill="#15A800"/>
<path d="M48.5654 6.13416C51.8626 6.11841 54.5736 8.80729 54.5894 12.183C54.6053 15.5589 51.9193 18.2723 48.6234 18.2875C45.3277 18.3025 42.6159 15.6155 42.6005 12.2386C42.5854 8.86143 45.2707 6.14878 48.5666 6.13293L48.5654 6.13416ZM39.1795 18.0392L36.632 18.0503L34.5717 10.0325L32.5868 18.0689L30.038 18.0812L26.6133 6.61714L29.1608 6.60478L31.4456 14.4731L33.2826 6.58626L35.7548 6.56773L37.7398 14.4373L39.8013 6.5492L42.4253 6.53685L39.1795 18.0392ZM62.971 8.98876L61.9199 8.99493C60.1964 9.0032 58.8535 10.4351 58.8617 12.1608L58.8888 17.9379L56.266 17.9503L56.213 6.47014L58.8358 6.45779L58.8456 8.25874C58.8456 8.25874 59.96 6.4533 62.2086 6.44297L62.9587 6.43926L62.971 8.98876ZM67.242 9.94482L67.6171 9.94358C69.4899 9.9367 71.0573 8.35425 71.0479 6.40344L73.6707 6.38986C73.6811 8.64051 72.4159 10.5986 70.6236 11.6568L74.9994 17.8626L71.9276 17.8762L68.2315 12.8673C68.1548 12.6432 67.855 12.4943 67.5554 12.4955L67.2556 12.4968L67.2803 17.8984L64.6587 17.9108L64.5785 0.87954L67.2013 0.867188L67.242 9.94482ZM48.5777 8.75777C47.6435 8.76825 46.7488 9.13689 46.0918 9.80153C45.4348 10.4662 45.0626 11.365 45.0728 12.3004C45.0831 13.2359 45.4514 14.1327 46.1153 14.7906C46.7793 15.4485 47.6778 15.8164 48.6123 15.8109C50.4865 15.8011 52.1268 14.1443 52.1171 12.267C52.1068 11.3315 51.7387 10.4347 51.0747 9.77683C50.4107 9.11902 49.512 8.74744 48.5777 8.75777Z" fill="#433F34"/>
</g>
<defs>
<clipPath id="clip0_16186_3631">
<rect width="75" height="24" fill="white"/>
</clipPath>
</defs>
</svg>
