<svg width="120" height="34" viewBox="0 0 120 34" fill="none" xmlns="http://www.w3.org/2000/svg">
<path d="M76.0818 8.11761C71.2918 8.14061 67.3898 12.0776 67.4118 16.9796C67.4338 21.8816 71.3748 25.7816 76.1648 25.7596C80.9548 25.7376 84.8578 21.7996 84.8348 16.8996C84.8118 11.9996 80.8718 8.09661 76.0798 8.11961L76.0818 8.11761ZM76.1478 22.1646C74.7898 22.1726 73.4848 21.6396 72.5198 20.6846C71.5548 19.7296 71.0198 18.4286 71.0048 17.0706C70.9898 15.7126 71.5298 14.4076 72.4848 13.4426C73.4398 12.4776 74.7408 11.9426 76.0988 11.9276C77.4568 11.9126 78.7618 12.4526 79.7268 13.4076C80.6918 14.3626 81.2268 15.6636 81.2418 17.0216C81.2558 19.7466 78.8718 22.1506 76.1478 22.1646ZM95.4878 12.2726C92.9828 12.2846 91.0318 14.3626 91.0438 16.8676L91.0838 25.2526L87.2718 25.2706L87.1948 8.60761L91.0068 8.58961L91.0198 11.2026C91.0198 11.2026 92.6398 8.58261 95.9078 8.56761L96.9978 8.56161L97.0158 12.2636L95.4878 12.2726ZM57.4618 8.74961L60.3478 20.1716L63.3438 8.72161L67.1558 8.70461L62.4398 25.3996L58.7378 25.4166L55.7438 13.7786L52.8578 25.4436L49.1548 25.4606L44.1768 8.82061L47.8788 8.80361L51.1988 20.2236L53.8688 8.77561L57.4618 8.74961ZM108.137 16.1356C110.742 14.5996 112.582 11.7586 112.567 8.49161L108.755 8.50961C108.769 11.3416 106.491 13.6396 103.769 13.6496L103.224 13.6516L103.164 0.474609L99.3518 0.492609L99.4688 25.2126L103.279 25.1956L103.243 17.3556L103.678 17.3536C104.114 17.3516 104.551 17.5676 104.662 17.8936L110.032 25.1636L114.497 25.1436L108.137 16.1356Z" fill="#4B4B4B"/>
<path d="M35.3529 8.30961C31.2159 8.32961 28.0699 11.0666 26.8929 15.4276C24.9179 12.3876 23.3769 8.91061 22.4929 5.97461L18.1379 5.99461L18.1919 17.5376C18.1967 18.6351 17.7655 19.6896 16.9932 20.4693C16.2208 21.249 15.1704 21.6901 14.0729 21.6956C12.9754 21.7004 11.921 21.2692 11.1413 20.4968C10.3616 19.7245 9.92049 18.6741 9.91493 17.5766L9.85993 6.03361L5.50293 6.05361L5.55693 17.5966C5.57993 22.3866 9.40693 26.1826 14.0909 26.1596C18.7749 26.1366 22.5689 22.3076 22.5469 17.5166L22.5369 15.5566C23.4149 17.2936 24.5129 19.1396 25.7199 20.7686L23.0569 33.5216L27.5209 33.5016L29.4409 24.2356C31.1879 25.3176 33.1409 25.9606 35.4369 25.9496C40.2289 25.9266 44.1319 21.9896 44.1069 16.9796C44.0887 14.6713 43.1581 12.464 41.5182 10.8395C39.8783 9.21493 37.6623 8.3051 35.3539 8.30861L35.3529 8.30961ZM35.4149 21.4866C33.6729 21.4946 31.9279 20.7406 30.5069 19.5486L30.9339 17.8056V17.7056C31.2539 15.8516 32.2159 12.6896 35.4839 12.6756C36.6362 12.6737 37.7426 13.127 38.5624 13.9368C39.3821 14.7466 39.8488 15.8474 39.8609 16.9996C39.7629 19.5046 37.7039 21.4746 35.4159 21.4856L35.4149 21.4866Z" fill="#6FDA44"/>
</svg>
