<svg width="73" height="24" viewBox="0 0 73 24" fill="none" xmlns="http://www.w3.org/2000/svg">
<path d="M46.9269 6.28841C50.1128 6.27318 52.7323 8.8713 52.7476 12.1331C52.7629 15.395 50.1676 18.0168 46.9829 18.0315C43.7985 18.046 41.1783 15.4497 41.1634 12.1868C41.1488 8.9236 43.7434 6.30252 46.9281 6.28721L46.9269 6.28841ZM37.8579 17.7916L35.3963 17.8023L33.4056 10.0552L31.4877 17.8202L29.0249 17.8322L25.7158 6.75507L28.1774 6.74314L30.385 14.3459L32.16 6.72524L34.5488 6.70733L36.4668 14.3113L38.4587 6.68943L40.9941 6.67749L37.8579 17.7916ZM60.8463 9.04664L59.8307 9.05261C58.1653 9.0606 56.8678 10.4442 56.8756 12.1116L56.9019 17.6937L54.3676 17.7057L54.3163 6.61304L56.8506 6.60111L56.8601 8.34127C56.8601 8.34127 57.9369 6.59677 60.1096 6.58679L60.8344 6.58321L60.8463 9.04664ZM64.9731 9.97043L65.3355 9.96923C67.1451 9.96258 68.6596 8.43355 68.6506 6.54859L71.1848 6.53546C71.1948 8.71015 69.9723 10.6021 68.2405 11.6247L72.4686 17.6209L69.5005 17.634L65.9291 12.7943C65.855 12.5778 65.5654 12.4339 65.2759 12.4351L64.9862 12.4362L65.0101 17.6555L62.477 17.6675L62.3995 1.21115L64.9338 1.19922L64.9731 9.97043ZM46.9388 8.82345C46.0362 8.83357 45.1717 9.18977 44.5369 9.83198C43.902 10.4743 43.5424 11.3426 43.5522 12.2465C43.5622 13.1504 43.9181 14.0169 44.5595 14.6526C45.2011 15.2884 46.0693 15.6438 46.9722 15.6385C48.7832 15.629 50.3681 14.0282 50.3588 12.2143C50.3488 11.3103 49.9931 10.4438 49.3515 9.80811C48.7099 9.1725 47.8416 8.81347 46.9388 8.82345Z" fill="#161615"/>
<path d="M11.2957 4.86133C11.8834 6.81563 12.908 9.13001 14.221 11.1536C14.9791 8.34152 16.9661 6.54424 19.5899 6.42246L19.8462 6.4153C21.3807 6.41296 22.8542 7.01823 23.9444 8.09936C25.0347 9.18079 25.6536 10.6506 25.6657 12.1872C25.6823 15.5221 23.088 18.1428 19.9022 18.1584C18.3757 18.1657 17.0764 17.7376 15.9149 17.0174L14.6394 23.1855L11.6712 23.1986L13.4414 14.7091C12.639 13.6248 11.9092 12.3957 11.3255 11.2395L11.3315 12.5452C11.3458 15.7343 8.82383 18.2827 5.70985 18.298C2.59566 18.3133 0.0510528 15.7864 0.0357611 12.5978L0 4.91384L2.89665 4.90071L2.9336 12.5846C2.93729 13.3152 3.23057 14.0147 3.74895 14.5289C4.26731 15.0429 4.96839 15.3293 5.69793 15.3261C6.42756 15.3224 7.12626 15.0288 7.63976 14.5098C8.15301 13.9908 8.43922 13.2887 8.43604 12.5584L8.40027 4.87446L11.2957 4.86133ZM19.9332 9.32153C17.7605 9.33085 17.1206 11.4364 16.9078 12.6706V12.7374L16.6241 13.8975C17.5689 14.691 18.7298 15.1918 19.8879 15.1865C21.4091 15.1791 22.7778 13.8678 22.843 12.2003C22.8349 11.4334 22.5248 10.7008 21.9799 10.1618C21.435 9.62273 20.6993 9.3203 19.9332 9.32153Z" fill="#6FDA44"/>
</svg>
