<svg width="151" height="46" viewBox="0 0 151 46" fill="none" xmlns="http://www.w3.org/2000/svg">
<g clip-path="url(#clip0_16171_1849)">
<path d="M27.9336 9.82422C29.1157 13.7338 31.1767 18.3638 33.8176 22.412C35.3426 16.7864 39.3392 13.1909 44.6169 12.9473L45.1324 12.933C48.2189 12.9283 51.1828 14.1391 53.3757 16.3019C55.5688 18.4653 56.8136 21.4057 56.838 24.4797C56.8715 31.1513 51.6532 36.3941 45.2451 36.4251C42.1746 36.4398 39.561 35.5834 37.2247 34.1425L34.6592 46.4819L28.6889 46.5082L32.2495 29.5248C30.6355 27.3556 29.1676 24.8969 27.9936 22.5839L28.0055 25.196C28.0344 31.5757 22.9615 36.6738 16.6979 36.7045C10.4339 36.7351 5.31558 31.6799 5.28482 25.301L5.21289 9.92928L11.0393 9.90301L11.1137 25.2748C11.1211 26.7363 11.711 28.1357 12.7537 29.1643C13.7963 30.1925 15.2065 30.7656 16.674 30.7592C18.1416 30.7518 19.547 30.1643 20.5798 29.1261C21.6122 28.0878 22.1879 26.6834 22.1815 25.2222L22.1096 9.85048L27.9336 9.82422ZM45.3074 18.7469C40.9371 18.7655 39.65 22.9777 39.222 25.4467V25.5804L38.6514 27.9012C40.5517 29.4885 42.8868 30.4905 45.2163 30.4799C48.2761 30.4651 51.0292 27.8418 51.1603 24.5059C51.1439 22.9718 50.5203 21.5061 49.4243 20.4278C48.3281 19.3495 46.8483 18.7444 45.3074 18.7469Z" fill="#15A800"/>
<path d="M99.6043 12.681C106.013 12.6505 111.282 17.8481 111.312 24.3733C111.343 30.8987 106.123 36.1439 99.717 36.1732C93.3118 36.2021 88.0413 31.0082 88.0114 24.4808C87.982 17.9527 93.201 12.7092 99.6067 12.6786L99.6043 12.681ZM81.3625 35.6932L76.4113 35.7147L72.4071 20.2164L68.5492 35.7505L63.5955 35.7744L56.9395 13.6146L61.8907 13.5907L66.3313 28.8001L69.9015 13.5549L74.7065 13.519L78.5644 28.7308L82.571 13.4832L87.6709 13.4594L81.3625 35.6932ZM127.602 18.1989L125.56 18.2108C122.21 18.2268 119.6 20.9946 119.616 24.3304L119.668 35.4974L114.571 35.5213L114.468 13.3304L119.565 13.3065L119.584 16.7878C119.584 16.7878 121.75 13.2979 126.121 13.2779L127.578 13.2707L127.602 18.1989ZM135.903 20.0469L136.632 20.0445C140.272 20.0312 143.318 16.9724 143.3 13.2015L148.398 13.1752C148.418 17.5257 145.959 21.3106 142.475 23.3562L150.98 35.3518L145.01 35.3781L137.826 25.6961C137.677 25.2629 137.095 24.9751 136.512 24.9774L135.93 24.9798L135.978 35.421L130.883 35.4449L130.727 2.52388L135.824 2.5L135.903 20.0469ZM99.6283 17.7524C97.8127 17.7726 96.0738 18.4852 94.7969 19.7699C93.52 21.0548 92.7966 22.7921 92.8164 24.6002C92.8365 26.4084 93.5523 28.1419 94.8425 29.4137C96.133 30.6855 97.8794 31.3966 99.6955 31.3859C103.338 31.367 106.526 28.1645 106.507 24.5357C106.487 22.7273 105.772 20.9939 104.481 19.7222C103.191 18.4507 101.444 17.7324 99.6283 17.7524Z" fill="#161615"/>
</g>
<defs>
<clipPath id="clip0_16171_1849">
<rect width="151" height="46" fill="white"/>
</clipPath>
</defs>
</svg>
