<svg width="24" height="24" viewBox="0 0 24 24" fill="none" xmlns="http://www.w3.org/2000/svg">
<path d="M9.39106 0.170623C7.7559 -0.358705 5.97834 0.377578 5.19638 1.90813L4.2563 3.74816C4.1446 3.96679 3.96679 4.1446 3.74816 4.2563L1.90813 5.19638C0.377578 5.97834 -0.358705 7.7559 0.170623 9.39106L0.806993 11.3569C0.882605 11.5905 0.882605 11.842 0.806993 12.0756L0.170623 14.0414C-0.358705 15.6766 0.377578 17.4541 1.90813 18.2361L3.74816 19.1761C3.96679 19.2879 4.1446 19.4657 4.2563 19.6843L5.19638 21.5244C5.97834 23.0549 7.7559 23.7912 9.39106 23.2619L11.3569 22.6255C11.5905 22.5499 11.842 22.5499 12.0756 22.6255L14.0414 23.2619C15.6766 23.7912 17.4541 23.0549 18.2361 21.5244L19.1761 19.6843C19.2879 19.4657 19.4657 19.2879 19.6843 19.1761L21.5244 18.2361C23.0549 17.4541 23.7912 15.6766 23.2619 14.0414L22.6255 12.0756C22.5499 11.842 22.5499 11.5905 22.6255 11.3569L23.2619 9.39106C23.7912 7.7559 23.0549 5.97834 21.5244 5.19638L19.6843 4.2563C19.4657 4.1446 19.2879 3.96679 19.1761 3.74816L18.2361 1.90813C17.4541 0.377578 15.6766 -0.358705 14.0414 0.170623L12.0756 0.806993C11.842 0.882593 11.5905 0.882605 11.3569 0.806993L9.39106 0.170623ZM5.60262 11.4331L7.25255 9.78306L10.5524 13.083L17.1521 6.48332L18.802 8.13323L10.5524 16.3828L5.60262 11.4331Z" fill="#086ADD"/>
</svg>
